<?xml version="1.0" encoding="utf-8"?>
<!-- Generator: Adobe Illustrator 16.0.0, SVG Export Plug-In . SVG Version: 6.00 Build 0)  -->
<!DOCTYPE svg PUBLIC "-//W3C//DTD SVG 1.1//EN" "http://www.w3.org/Graphics/SVG/1.1/DTD/svg11.dtd">
<svg version="1.1" id="Layer_1" xmlns="http://www.w3.org/2000/svg" xmlns:xlink="http://www.w3.org/1999/xlink" x="0px" y="0px"
	 width="89.937px" height="44.269px" viewBox="0 0 89.937 44.269" enable-background="new 0 0 89.937 44.269" xml:space="preserve">
<g>
	<path fill="#010101" d="M6.187,38.768c-0.472,0-0.941-0.049-1.396-0.148c-1.523-0.334-2.765-1.207-3.499-2.459
		c-2.822-5.725,1.281-10.423,3.997-13.532c1.194-1.177,2.949-2.668,5.255-4.468c-0.453-0.639-0.95-1.213-1.499-1.733
		c-0.636-0.602-1.618-1.228-2.658-1.891C3.03,12.398-1.567,9.468,0.527,3.863L0.569,3.77c2.084-3.908,6.351-4.394,9.435-3.186
		c2.93,1.147,4.653,3.521,4.85,6.685c0.118,1.886-1.352,6.329-4.112,8.684c0.374,0.409,0.714,0.832,1.023,1.265
		c1.808-1.38,3.738-2.729,5.897-4.118c1.464-0.946,3.287-2.123,4.664-1.406c0.813,0.424,1.235,1.358,1.289,2.855
		c0.048,1.309,0.626,2.08,0.845,2.268c0.679,0.581,1.902-0.252,2.519-0.835c0.017-0.018,0.442-0.448,1.035-1.169
		c-0.956-2.26-1.014-4.88-0.991-5.955c0.061-2.878,1.737-6.726,3.607-7.113c0.4-0.082,1.402-0.12,2.061,1.314
		c2.012,4.379-0.815,9.25-2.863,11.95c0.902,1.633,1.824,2.109,3.388,1.804c1.228-0.238,2.597-1.756,3.502-2.761
		c0.84-0.932,1.306-1.449,1.905-1.449h0.014c0.739,0.011,1.161,0.792,1.745,1.873c0.125,0.233,0.246,0.457,0.353,0.634
		c0.756,1.244,1.281,1.589,2.253,1.489c0.76-0.079,1.926-1.037,2.777-1.735c0.383-0.313,0.743-0.609,1.063-0.831
		c1.333-0.925,2.197-0.303,2.828,0.15c0.34,0.245,0.66,0.476,1.111,0.573c0.798,0.176,1.276-0.161,1.987-0.724
		c0.82-0.651,1.943-1.539,3.672-0.45c0.822,0.519,3.484,1.694,4.94,1.575l0.111,1.541c-2.055,0.142-5.174-1.368-5.874-1.81
		c-0.767-0.483-1.065-0.3-1.891,0.354c-0.726,0.574-1.721,1.36-3.273,1.022c-0.764-0.166-1.296-0.549-1.685-0.828
		c-0.563-0.406-0.608-0.438-1.046-0.136c-0.268,0.187-0.606,0.463-0.963,0.756c-1.114,0.914-2.375,1.949-3.595,2.077
		c-1.969,0.203-2.958-0.943-3.734-2.223c-0.119-0.196-0.253-0.443-0.393-0.702c-0.124-0.23-0.318-0.59-0.483-0.852
		c-0.2,0.2-0.454,0.482-0.675,0.728c-1.106,1.227-2.62,2.906-4.355,3.243c-2.466,0.479-3.834-0.677-4.718-2.043
		c-0.444,0.511-0.739,0.804-0.754,0.818c-1.644,1.556-3.401,1.896-4.581,0.886c-0.6-0.513-1.323-1.707-1.384-3.383
		c-0.046-1.233-0.364-1.493-0.46-1.542c-0.581-0.311-2.229,0.76-3.114,1.333c-2.158,1.389-4.08,2.733-5.878,4.109
		c-0.008,0.006-0.015,0.012-0.023,0.018c0.915,1.61,1.48,3.261,1.896,4.681c1.812,6.188-0.739,11.861-4.195,14.269
		C9.087,38.316,7.622,38.768,6.187,38.768 M11.362,19.481c-2.192,1.714-3.854,3.126-4.95,4.205
		c-2.553,2.925-6.103,6.989-3.762,11.742c0.488,0.826,1.375,1.442,2.471,1.683c1.426,0.311,3.032-0.025,4.296-0.905
		c3.925-2.734,4.782-8.516,3.595-12.568C12.536,22.012,11.998,20.648,11.362,19.481 M1.956,4.451
		c-1.613,4.404,2.038,6.729,5.26,8.783c0.879,0.56,1.719,1.095,2.4,1.645c2.317-1.895,3.796-5.935,3.697-7.514
		c-0.091-1.466-0.716-4.108-3.872-5.343C7.545,1.281,3.847,0.964,1.956,4.451 M30.962,3.252c-0.028,0-0.142,0.029-0.33,0.189
		c-0.937,0.797-2.02,3.296-2.066,5.447c-0.018,0.836,0.016,2.699,0.558,4.462c1.744-2.492,3.686-6.337,2.165-9.647
		c-0.16-0.35-0.296-0.444-0.324-0.451H30.962z"/>
	<path fill="#010101" d="M18.444,18.662c-0.256,0-0.497-0.041-0.716-0.129c-1.451-0.59-1.722-2.23-1.24-3.546
		c0.289-0.788,1.212-2.021,2.865-2.899l0.724,1.363c-1.408,0.748-2.021,1.746-2.139,2.067c-0.127,0.348-0.308,1.308,0.37,1.584
		c0.338,0.135,1.585-0.311,2.691-1.298c0.879-0.785,1.104-1.408,1.04-1.636l1.488-0.415c0.268,0.962-0.265,2.1-1.5,3.202
		C21.022,17.854,19.588,18.662,18.444,18.662"/>
	<path fill="#010101" d="M65.94,17.746c-0.836,0.001-1.952-0.312-2.704-1.194c-0.433-0.509-0.893-1.398-0.627-2.742
		c0.322-1.291,1.267-2.182,2.536-2.421c1.48-0.276,3.104,0.36,4.328,1.652c0.001-0.001,0.002-0.002,0.002-0.004
		c0.032-0.067,0.066-0.15,0.1-0.248c-0.468-1.469-0.674-2.947-0.636-3.836c0.001-0.029,0.003-0.058,0.005-0.084
		c-0.001-0.013-0.001-0.023-0.002-0.035c-0.045-0.491,0.002-4.244,1.424-4.64c0.197-0.056,0.873-0.161,1.325,0.771
		c0.705,1.453,0.055,5.697-0.5,7.769c0.501,1.414,1.246,2.691,2.159,2.968c0.701,0.213,1.358,0.166,1.952-0.138
		c-0.646-0.954-1.153-2.295-1.039-3.353c0.099-0.915,0.586-1.67,1.304-2.021c0.616-0.303,1.331-0.268,1.913,0.09
		c1.048,0.644,1.443,1.803,1.084,3.181c-0.22,0.844-0.577,1.588-1.043,2.195c0.625,0.442,1.215,0.499,1.951,0.224l0.541,1.447
		c-1.7,0.637-2.931-0.025-3.641-0.601c-0.075,0.048-0.15,0.094-0.227,0.137c-0.983,0.553-2.105,0.661-3.243,0.316
		c-1.07-0.324-1.912-1.294-2.541-2.484c-0.734,1.299-2.038,2.973-4.308,3.049C66.016,17.745,65.978,17.746,65.94,17.746
		 M65.834,12.87c-0.144,0-0.279,0.013-0.403,0.035c-0.68,0.128-1.147,0.569-1.315,1.241c-0.11,0.556-0.013,1.042,0.296,1.404
		c0.403,0.474,1.09,0.667,1.588,0.651c1.193-0.041,2.03-0.778,2.673-1.725C67.754,13.285,66.654,12.87,65.834,12.87 M76.444,11.528
		c-0.077,0-0.145,0.022-0.198,0.049c-0.239,0.117-0.407,0.416-0.448,0.801c-0.063,0.576,0.254,1.45,0.655,2.118
		c0.266-0.402,0.476-0.883,0.616-1.425c0.278-1.062-0.23-1.372-0.397-1.476C76.591,11.547,76.514,11.528,76.444,11.528"/>
	<path fill="#010101" d="M39.416,8.689c0,0.679-0.354,1.229-0.791,1.229c-0.434,0-0.788-0.551-0.788-1.229
		c0-0.68,0.354-1.229,0.788-1.229C39.062,7.461,39.416,8.01,39.416,8.689"/>
	<path d="M21.475,33.006l0.567,0.181c-0.087,0.317-0.233,0.553-0.435,0.706c-0.202,0.154-0.459,0.23-0.77,0.23
		c-0.385,0-0.702-0.132-0.949-0.395c-0.248-0.263-0.372-0.624-0.372-1.08c0-0.482,0.124-0.858,0.373-1.125
		c0.25-0.268,0.577-0.401,0.984-0.401c0.355,0,0.644,0.105,0.865,0.315c0.132,0.124,0.231,0.301,0.297,0.533l-0.579,0.14
		c-0.035-0.151-0.106-0.27-0.215-0.357c-0.109-0.087-0.242-0.13-0.398-0.13c-0.215,0-0.389,0.077-0.524,0.231
		c-0.134,0.154-0.201,0.405-0.201,0.75c0,0.368,0.066,0.63,0.198,0.785c0.132,0.155,0.304,0.233,0.515,0.233
		c0.156,0,0.29-0.05,0.402-0.149C21.345,33.375,21.426,33.219,21.475,33.006"/>
	<path d="M30.717,34.073h-0.638l-0.251-0.66h-1.162l-0.24,0.66h-0.622l1.13-2.903h0.624L30.717,34.073z M29.639,32.922l-0.401-1.074
		l-0.392,1.074H29.639z"/>
	<polygon points="36.936,34.073 36.936,31.661 36.075,31.661 36.075,31.17 38.38,31.17 38.38,31.661 37.522,31.661 37.522,34.073 	
		"/>
	<polygon points="44.313,34.073 44.313,31.17 46.463,31.17 46.463,31.661 44.899,31.661 44.899,32.305 46.354,32.305 46.354,32.796 
		44.899,32.796 44.899,33.583 46.52,33.583 46.52,34.073 	"/>
	<path d="M52.572,34.073V31.17h1.233c0.31,0,0.534,0.026,0.675,0.078c0.14,0.052,0.252,0.146,0.337,0.278
		c0.085,0.134,0.127,0.287,0.127,0.458c0,0.219-0.064,0.398-0.191,0.54c-0.128,0.143-0.318,0.231-0.572,0.269
		c0.126,0.074,0.229,0.155,0.312,0.243c0.082,0.089,0.193,0.246,0.333,0.471l0.354,0.566h-0.701l-0.421-0.633
		c-0.15-0.225-0.253-0.367-0.31-0.425c-0.054-0.06-0.113-0.1-0.176-0.12c-0.062-0.022-0.16-0.032-0.294-0.032h-0.119v1.21H52.572z
		 M53.159,32.4h0.432c0.281,0,0.457-0.013,0.526-0.036c0.07-0.023,0.125-0.064,0.165-0.123c0.04-0.058,0.059-0.132,0.059-0.219
		c0-0.098-0.026-0.177-0.078-0.237c-0.052-0.061-0.125-0.099-0.22-0.113c-0.048-0.008-0.191-0.011-0.428-0.011h-0.456V32.4z"/>
	<rect x="61.033" y="31.17" width="0.586" height="2.902"/>
	<polygon points="67.735,34.073 67.735,31.17 68.304,31.17 69.498,33.113 69.498,31.17 70.041,31.17 70.041,34.073 69.452,34.073 
		68.279,32.173 68.279,34.073 	"/>
	<path d="M77.564,33.008v-0.49h1.263v1.157c-0.123,0.118-0.301,0.223-0.534,0.313c-0.232,0.091-0.469,0.136-0.708,0.136
		c-0.304,0-0.569-0.063-0.794-0.191c-0.226-0.127-0.395-0.309-0.509-0.546c-0.114-0.236-0.17-0.494-0.17-0.774
		c0-0.301,0.062-0.568,0.19-0.805c0.127-0.234,0.312-0.414,0.556-0.54c0.186-0.096,0.418-0.145,0.695-0.145
		c0.361,0,0.642,0.075,0.845,0.227s0.332,0.36,0.391,0.627l-0.581,0.11c-0.042-0.144-0.119-0.257-0.232-0.339
		c-0.113-0.083-0.254-0.124-0.423-0.124c-0.256,0-0.46,0.081-0.611,0.243s-0.227,0.403-0.227,0.723c0,0.346,0.076,0.603,0.23,0.775
		c0.153,0.173,0.354,0.259,0.603,0.259c0.123,0,0.245-0.023,0.37-0.072c0.124-0.048,0.229-0.106,0.318-0.175v-0.368H77.564z"/>
	<path fill="#E2231A" d="M89.793,30.729c-0.663-4.289-3.106-9.221-3.813-10.9c-0.611-1.449-0.964-2.222-0.78-3.466
		c0.204-1.388,3.372-4.316,3.472-5.687c0.111-1.506-0.94-1.702-2.068-1.702c-0.795,0-4.116-0.029-4.315,0.159
		c-0.199,0.188-0.223,1.54-0.034,1.647c0.392,0.225,2.356-0.025,3.082,0c1.374,0.049,0.429,1.144-0.121,1.792
		c-0.599,0.705-1.773,2.133-2.529,3.175c-0.999,1.376,0.657,3.876,2.606,8.048c1.092,2.535,1.818,5.147,2.087,7.202
		c0.268,2.056,0.302,6.596-1.162,12.213c-0.536,2.056,1.865,0.639,2.279-0.269C89.882,39.904,90.15,33.68,89.793,30.729"/>
</g>
</svg>
