<?xml version="1.0" encoding="utf-8"?>
<!-- Generator: Adobe Illustrator 16.0.0, SVG Export Plug-In . SVG Version: 6.00 Build 0)  -->
<!DOCTYPE svg PUBLIC "-//W3C//DTD SVG 1.1//EN" "http://www.w3.org/Graphics/SVG/1.1/DTD/svg11.dtd">
<svg version="1.1" id="Layer_1" xmlns="http://www.w3.org/2000/svg" xmlns:xlink="http://www.w3.org/1999/xlink" x="0px" y="0px"
	 width="95.173px" height="61.231px" viewBox="0 0 95.173 61.231" enable-background="new 0 0 95.173 61.231" xml:space="preserve">
<g>
	<defs>
		<rect id="SVGID_1_" x="325.34" y="-3063.311" width="1024" height="4142"/>
	</defs>
	<clipPath id="SVGID_2_">
		<use xlink:href="#SVGID_1_"  overflow="visible"/>
	</clipPath>
	<g clip-path="url(#SVGID_2_)">
		<defs>
			<rect id="SVGID_78_" x="325.34" y="-3063.311" width="1024" height="4142"/>
		</defs>
		<clipPath id="SVGID_4_">
			<use xlink:href="#SVGID_78_"  overflow="visible"/>
		</clipPath>
		<g opacity="0.8" clip-path="url(#SVGID_4_)">
			<g>
				<defs>
					<rect id="SVGID_82_" x="-72.666" y="43.333" width="95.172" height="61.231"/>
				</defs>
				<clipPath id="SVGID_6_">
					<use xlink:href="#SVGID_82_"  overflow="visible"/>
				</clipPath>
				<path clip-path="url(#SVGID_6_)" fill="#231F20" d="M18.639,43.329h-87.436c-2.137,0-3.869,1.731-3.869,3.868V92.29
					c0,2.137,1.732,3.869,3.869,3.869h8.807h1.918l6.228,8.405l6.554-8.405h63.929c2.137,0,3.868-1.732,3.868-3.869V47.197
					C22.507,45.061,20.776,43.329,18.639,43.329"/>
			</g>
		</g>
		<path clip-path="url(#SVGID_4_)" fill="#FFFFFF" d="M-6.944,66.822c-0.699,0-1.634-0.261-2.265-1
			c-0.362-0.427-0.75-1.173-0.526-2.302c0.269-1.083,1.062-1.829,2.126-2.031c1.239-0.235,2.603,0.303,3.63,1.389
			c0,0,0.001-0.002,0.003-0.004c0.026-0.057,0.054-0.127,0.083-0.207c-0.393-1.233-0.566-2.475-0.532-3.22
			c0.001-0.024,0.002-0.048,0.003-0.071c0-0.01-0.001-0.02-0.001-0.03c-0.039-0.411,0-3.557,1.194-3.89
			c0.166-0.047,0.733-0.135,1.111,0.646c0.591,1.218,0.047,4.773-0.418,6.512c0.42,1.193,1.044,2.262,1.81,2.494
			c0.588,0.178,1.14,0.141,1.637-0.115c-0.543-0.801-0.967-1.924-0.872-2.812c0.083-0.768,0.492-1.401,1.093-1.697
			c0.518-0.252,1.118-0.224,1.607,0.077c0.879,0.539,1.21,1.511,0.908,2.667c-0.185,0.709-0.484,1.332-0.875,1.841
			c0.527,0.374,1.021,0.419,1.637,0.188l0.455,1.213c-1.426,0.534-2.46-0.02-3.056-0.503c-0.062,0.041-0.126,0.079-0.19,0.115
			c-0.824,0.463-1.763,0.555-2.72,0.264C-2,66.074-2.707,65.263-3.235,64.264c-0.615,1.092-1.708,2.494-3.612,2.558
			C-6.879,66.822-6.911,66.822-6.944,66.822 M-7.031,62.732c-0.121,0-0.234,0.011-0.338,0.03c-0.571,0.107-0.963,0.477-1.103,1.04
			c-0.093,0.467-0.01,0.875,0.249,1.18c0.339,0.397,0.922,0.567,1.331,0.544c1.001-0.033,1.703-0.65,2.243-1.445
			C-5.421,63.079-6.342,62.732-7.031,62.732 M1.869,61.607c-0.065,0-0.123,0.021-0.166,0.041c-0.2,0.099-0.341,0.349-0.376,0.671
			c-0.052,0.484,0.213,1.218,0.549,1.777c0.224-0.338,0.399-0.74,0.517-1.195c0.232-0.89-0.193-1.15-0.333-1.236
			C1.991,61.624,1.928,61.607,1.869,61.607"/>
		<path clip-path="url(#SVGID_4_)" fill="#FFFFFF" d="M13.067,77.714c-0.557-3.599-2.604-7.734-3.199-9.144
			c-0.511-1.216-0.807-1.863-0.654-2.906c0.171-1.166,2.829-3.621,2.914-4.771c0.092-1.264-0.79-1.428-1.736-1.428
			c-0.666,0-3.453-0.023-3.619,0.134c-0.167,0.158-0.188,1.291-0.029,1.382c0.328,0.188,1.977-0.022,2.586,0
			c1.152,0.041,0.359,0.959-0.103,1.502c-0.503,0.592-1.487,1.789-2.12,2.664c-0.839,1.153,0.55,3.252,2.186,6.75
			c0.915,2.127,1.524,4.318,1.751,6.042c0.224,1.725,0.253,5.532-0.976,10.245c-0.448,1.724,1.565,0.534,1.911-0.226
			C13.143,85.411,13.367,80.188,13.067,77.714"/>
	</g>
</g>
<g opacity="0.8">
	<g>
		<defs>
			<rect id="SVGID_176_" x="0.001" width="95.172" height="61.231"/>
		</defs>
		<clipPath id="SVGID_8_">
			<use xlink:href="#SVGID_176_"  overflow="visible"/>
		</clipPath>
		<path clip-path="url(#SVGID_8_)" fill="#231F20" d="M91.305-0.004H3.869C1.732-0.004,0,1.728,0,3.864v45.093
			c0,2.137,1.732,3.869,3.869,3.869h8.807h1.918l6.228,8.405l6.554-8.405h63.929c2.137,0,3.868-1.732,3.868-3.869V3.864
			C95.173,1.728,93.442-0.004,91.305-0.004"/>
	</g>
</g>
<path fill="#FFFFFF" d="M15.602,41.125c-0.396,0-0.789-0.042-1.172-0.125c-1.276-0.281-2.317-1.013-2.934-2.063
	c-2.367-4.805,1.075-8.746,3.352-11.353c1.184-1.166,2.914-2.581,4.408-3.747C18.877,23.3,18.461,22.82,18,22.384
	c-0.534-0.504-1.357-1.029-2.231-1.586c-2.815-1.794-6.67-4.251-4.914-8.953c1.784-3.358,5.361-3.764,7.949-2.75
	c2.458,0.961,3.903,2.952,4.068,5.606c0.099,1.582-1.135,5.31-3.449,7.285c0.314,0.342,0.599,0.697,0.858,1.061
	c1.511-1.154,3.131-2.286,4.947-3.456c1.229-0.793,2.757-1.778,3.913-1.179c0.681,0.357,1.035,1.139,1.081,2.396
	c0.04,1.095,0.525,1.744,0.709,1.903c0.569,0.482,1.596-0.214,2.112-0.704c0.014-0.013,0.371-0.374,0.868-0.978
	c-0.802-1.896-0.85-4.095-0.831-4.997c0.053-2.413,1.457-5.641,3.025-5.967c0.332-0.073,1.175-0.104,1.73,1.104
	c1.688,3.672-0.684,7.758-2.403,10.024c0.757,1.368,1.533,1.761,2.844,1.512c1.029-0.198,2.177-1.473,2.936-2.313
	c0.705-0.783,1.097-1.218,1.598-1.218h0.013c0.619,0.009,0.973,0.662,1.461,1.567c0.107,0.197,0.208,0.386,0.298,0.535
	c0.634,1.044,1.076,1.334,1.889,1.249c0.638-0.067,1.615-0.868,2.328-1.454c0.331-0.27,0.635-0.519,0.895-0.699
	c1.119-0.776,1.842-0.254,2.371,0.127c0.285,0.204,0.554,0.398,0.932,0.481c0.673,0.145,1.072-0.137,1.668-0.608
	c0.687-0.545,1.629-1.289,3.079-0.375c0.689,0.436,2.931,1.4,4.143,1.32l0.094,1.291c-1.711,0.132-4.341-1.146-4.927-1.518
	c-0.642-0.403-0.892-0.251-1.587,0.298c-0.608,0.481-1.438,1.14-2.746,0.855c-0.639-0.138-1.087-0.459-1.412-0.694
	c-0.473-0.34-0.513-0.365-0.877-0.113c-0.236,0.164-0.511,0.391-0.811,0.636c-0.932,0.767-1.99,1.635-3.014,1.741
	c-1.643,0.172-2.48-0.792-3.132-1.865c-0.099-0.164-0.214-0.373-0.329-0.592c-0.105-0.192-0.268-0.492-0.404-0.711
	c-0.169,0.169-0.382,0.406-0.568,0.611c-0.927,1.029-2.197,2.438-3.652,2.721c-2.075,0.397-3.216-0.569-3.958-1.715
	c-0.373,0.429-0.619,0.675-0.632,0.687c-1.381,1.303-2.853,1.588-3.843,0.745c-0.505-0.435-1.11-1.438-1.162-2.841
	c-0.037-1.033-0.303-1.251-0.385-1.294c-0.487-0.244-1.869,0.641-2.613,1.118c-1.814,1.171-3.426,2.297-4.929,3.448
	c-0.006,0.006-0.014,0.01-0.021,0.016c0.767,1.351,1.241,2.735,1.589,3.927c1.151,3.928,0.313,9.299-3.517,11.969
	C18.035,40.746,16.805,41.125,15.602,41.125 M19.943,24.944c-1.818,1.422-3.241,2.632-4.153,3.527
	c-2.14,2.454-5.118,5.862-3.155,9.852c0.532,0.9,1.422,1.269,2.073,1.411c1.197,0.262,2.544-0.022,3.604-0.76
	c3.293-2.294,4.01-7.144,3.015-10.541C20.926,27.069,20.476,25.924,19.943,24.944 M16.172,9.9c-1.473,0-3.123,0.571-4.139,2.476
	c-1.355,3.644,1.72,5.603,4.432,7.33c0.737,0.47,1.442,0.919,2.014,1.379c1.943-1.589,3.183-4.979,3.1-6.304
	c-0.075-1.229-0.599-3.446-3.247-4.48C17.761,10.077,16.994,9.9,16.172,9.9 M36.384,11.333c-0.023,0-0.119,0.024-0.278,0.158
	c-0.785,0.671-1.692,2.767-1.73,4.569c-0.016,0.701,0.011,2.264,0.467,3.743c1.462-2.09,3.09-5.317,1.814-8.093
	c-0.134-0.293-0.248-0.373-0.271-0.378H36.384z"/>
<path fill="#FFFFFF" d="M25.883,24.259c-0.215,0-0.417-0.033-0.601-0.108c-1.217-0.496-1.443-1.871-1.039-2.974
	c0.242-0.662,1.016-1.696,2.401-2.433l0.609,1.143c-1.181,0.628-1.696,1.465-1.793,1.734c-0.107,0.292-0.259,1.1,0.309,1.329
	c0.288,0.122,1.331-0.259,2.259-1.089c0.736-0.658,0.925-1.181,0.873-1.371l1.246-0.348c0.226,0.807-0.222,1.762-1.256,2.684
	C28.047,23.581,26.843,24.259,25.883,24.259"/>
<path fill="#FFFFFF" d="M65.723,23.489c-0.699,0-1.634-0.261-2.265-1c-0.362-0.427-0.75-1.173-0.526-2.302
	c0.269-1.083,1.062-1.829,2.126-2.031c1.239-0.235,2.603,0.303,3.63,1.389c0,0,0.001-0.002,0.003-0.004
	c0.026-0.057,0.054-0.127,0.083-0.207c-0.393-1.233-0.566-2.475-0.532-3.22c0.001-0.024,0.002-0.048,0.003-0.071
	c0-0.01-0.001-0.02-0.001-0.03c-0.039-0.411,0-3.557,1.194-3.89c0.166-0.047,0.733-0.135,1.111,0.646
	c0.591,1.218,0.047,4.773-0.418,6.512c0.42,1.193,1.044,2.262,1.81,2.494c0.588,0.178,1.14,0.141,1.637-0.115
	c-0.543-0.801-0.967-1.924-0.872-2.812c0.083-0.768,0.492-1.401,1.093-1.697c0.518-0.252,1.118-0.224,1.607,0.077
	c0.879,0.539,1.21,1.511,0.908,2.667c-0.185,0.709-0.484,1.332-0.875,1.841c0.527,0.374,1.021,0.419,1.637,0.188l0.455,1.213
	c-1.426,0.534-2.46-0.02-3.056-0.503c-0.062,0.041-0.126,0.079-0.19,0.115c-0.824,0.463-1.763,0.555-2.72,0.264
	c-0.898-0.272-1.605-1.084-2.133-2.083c-0.615,1.092-1.708,2.494-3.612,2.558C65.788,23.489,65.756,23.489,65.723,23.489
	 M65.636,19.399c-0.121,0-0.234,0.011-0.338,0.03c-0.571,0.107-0.963,0.477-1.103,1.04c-0.093,0.467-0.01,0.875,0.249,1.18
	c0.339,0.397,0.922,0.567,1.331,0.544c1.001-0.033,1.703-0.65,2.243-1.445C67.246,19.746,66.325,19.399,65.636,19.399
	 M74.536,18.274c-0.065,0-0.123,0.021-0.166,0.041c-0.2,0.099-0.341,0.349-0.376,0.671c-0.052,0.484,0.213,1.218,0.549,1.777
	c0.224-0.338,0.399-0.74,0.517-1.195c0.232-0.89-0.193-1.15-0.333-1.236C74.658,18.291,74.595,18.274,74.536,18.274"/>
<path fill="#FFFFFF" d="M43.475,15.893c0,0.569-0.297,1.031-0.663,1.031c-0.364,0-0.661-0.462-0.661-1.031s0.297-1.03,0.661-1.03
	C43.178,14.862,43.475,15.323,43.475,15.893"/>
<path fill="#FFFFFF" d="M28.425,36.291l0.478,0.15c-0.074,0.268-0.196,0.464-0.365,0.593c-0.172,0.129-0.385,0.194-0.648,0.194
	c-0.323,0-0.588-0.111-0.797-0.331c-0.207-0.222-0.312-0.524-0.312-0.906c0-0.405,0.105-0.72,0.314-0.944
	c0.21-0.225,0.484-0.336,0.825-0.336c0.299,0,0.54,0.087,0.727,0.264c0.11,0.104,0.194,0.254,0.249,0.448l-0.486,0.116
	c-0.029-0.126-0.089-0.227-0.181-0.299c-0.092-0.074-0.201-0.108-0.333-0.108c-0.181,0-0.327,0.063-0.44,0.194
	c-0.113,0.129-0.169,0.338-0.169,0.628c0,0.309,0.055,0.527,0.167,0.658c0.11,0.131,0.255,0.196,0.432,0.196
	c0.13,0,0.243-0.04,0.337-0.127C28.316,36.6,28.385,36.469,28.425,36.291"/>
<path fill="#FFFFFF" d="M36.178,37.187h-0.535l-0.211-0.555h-0.974l-0.202,0.555h-0.522l0.948-2.437h0.525L36.178,37.187z
	 M35.275,36.22l-0.338-0.9l-0.329,0.9H35.275z"/>
<polygon fill="#FFFFFF" points="41.396,37.187 41.396,35.164 40.672,35.164 40.672,34.75 42.606,34.75 42.606,35.164 41.888,35.164 
	41.888,37.187 "/>
<polygon fill="#FFFFFF" points="47.583,37.187 47.583,34.75 49.388,34.75 49.388,35.164 48.077,35.164 48.077,35.703 49.294,35.703 
	49.294,36.115 48.077,36.115 48.077,36.773 49.434,36.773 49.434,37.187 "/>
<path fill="#FFFFFF" d="M54.511,37.187V34.75h1.034c0.261,0,0.449,0.022,0.566,0.065c0.119,0.045,0.212,0.122,0.284,0.235
	c0.071,0.111,0.106,0.239,0.106,0.384c0,0.182-0.054,0.332-0.16,0.452c-0.107,0.119-0.267,0.194-0.479,0.226
	c0.104,0.061,0.193,0.129,0.261,0.204c0.069,0.074,0.162,0.206,0.278,0.396l0.297,0.475h-0.587l-0.353-0.532
	c-0.127-0.188-0.213-0.307-0.26-0.355c-0.046-0.049-0.095-0.082-0.148-0.101c-0.052-0.019-0.135-0.027-0.247-0.027h-0.1v1.016
	H54.511z M55.003,35.782h0.363c0.235,0,0.383-0.009,0.442-0.03c0.058-0.02,0.104-0.054,0.137-0.104
	c0.033-0.048,0.05-0.109,0.05-0.182c0-0.082-0.022-0.149-0.065-0.2c-0.045-0.051-0.106-0.083-0.185-0.096
	c-0.039-0.007-0.16-0.008-0.359-0.008h-0.383V35.782z"/>
<rect x="61.609" y="34.75" fill="#FFFFFF" width="0.492" height="2.438"/>
<polygon fill="#FFFFFF" points="67.231,37.187 67.231,34.75 67.708,34.75 68.709,36.381 68.709,34.75 69.164,34.75 69.164,37.187 
	68.672,37.187 67.687,35.591 67.687,37.187 "/>
<path fill="#FFFFFF" d="M75.475,36.293v-0.412h1.059v0.971c-0.103,0.1-0.251,0.186-0.447,0.264
	c-0.195,0.075-0.394,0.113-0.593,0.113c-0.255,0-0.478-0.054-0.666-0.16c-0.19-0.107-0.333-0.261-0.428-0.459
	c-0.094-0.197-0.143-0.415-0.143-0.649c0-0.253,0.052-0.478,0.16-0.676c0.106-0.196,0.261-0.347,0.465-0.452
	c0.157-0.081,0.352-0.121,0.585-0.121c0.302,0,0.538,0.063,0.708,0.189c0.171,0.127,0.279,0.303,0.328,0.525l-0.489,0.093
	c-0.033-0.12-0.099-0.216-0.194-0.284c-0.094-0.07-0.213-0.103-0.354-0.103c-0.215,0-0.387,0.066-0.513,0.203
	c-0.126,0.136-0.19,0.339-0.19,0.606c0,0.29,0.065,0.506,0.193,0.649c0.127,0.146,0.297,0.217,0.505,0.217
	c0.103,0,0.206-0.02,0.311-0.06c0.103-0.041,0.194-0.09,0.267-0.148v-0.307H75.475z"/>
<path fill="#FFFFFF" d="M85.733,34.381c-0.557-3.599-2.604-7.734-3.199-9.144c-0.511-1.216-0.807-1.863-0.654-2.906
	c0.171-1.166,2.829-3.621,2.914-4.771c0.092-1.264-0.79-1.428-1.736-1.428c-0.666,0-3.453-0.023-3.619,0.134
	c-0.167,0.158-0.188,1.291-0.029,1.382c0.328,0.188,1.977-0.022,2.586,0c1.152,0.041,0.359,0.959-0.103,1.502
	c-0.503,0.592-1.487,1.789-2.12,2.664c-0.839,1.153,0.55,3.252,2.186,6.75c0.915,2.127,1.524,4.318,1.751,6.042
	c0.224,1.725,0.253,5.532-0.976,10.245c-0.448,1.724,1.565,0.534,1.911-0.226C85.81,42.078,86.033,36.854,85.733,34.381"/>
</svg>
