<?xml version="1.0" encoding="utf-8"?>
<!-- Generator: Adobe Illustrator 16.0.0, SVG Export Plug-In . SVG Version: 6.00 Build 0)  -->
<!DOCTYPE svg PUBLIC "-//W3C//DTD SVG 1.1//EN" "http://www.w3.org/Graphics/SVG/1.1/DTD/svg11.dtd">
<svg version="1.1" id="Layer_1" xmlns="http://www.w3.org/2000/svg" xmlns:xlink="http://www.w3.org/1999/xlink" x="0px" y="0px"
	 width="173.957px" height="140.104px" viewBox="0 0 173.957 140.104" enable-background="new 0 0 173.957 140.104"
	 xml:space="preserve">
<g>
	<g>
		<g>
			<path fill="#FFFFFF" d="M99.373,7.373c-3.308,0-6.337,1.132-8.683,3.004c0.84,2.453,1.071,5.444,0.334,8.111
				c-0.969,3.503-2.051,6.221-3.283,8.105c2.342,3.786,6.667,6.333,11.632,6.333c7.449,0,13.491-5.721,13.491-12.778
				S106.822,7.373,99.373,7.373z"/>
		</g>
	</g>
	<g>
		<polygon fill="#FFFFFF" points="128.09,48.862 124.738,48.862 124.738,29.978 111.463,25.573 112.517,22.393 128.09,27.562 		"/>
	</g>
	<g>
		<polygon fill="#FFFFFF" points="43.331,47.098 39.981,47.098 39.981,27.571 55.154,22.398 56.236,25.568 43.331,29.969 		"/>
	</g>
	<g>
		<g>
			<path fill="#FFFFFF" d="M23.716,57.032c17.755-12.6,39.386-11.066,59.938-8.653c21.776,2.555,44.407,5.789,65.013-3.839
				c0.59-0.275-0.192-3.127,0-3.216c-20.241,9.459-42.519,6.523-63.938,3.964c-20.865-2.493-42.949-4.292-61.013,8.527
				C23.07,54.271,24.036,56.804,23.716,57.032L23.716,57.032z"/>
		</g>
	</g>
	<g>
		<g>
			<path fill="#FFFFFF" d="M0,68.559h3.363v33.954h7.947v3.051H0V68.559z"/>
		</g>
		<g>
			<path fill="#FFFFFF" d="M17.009,85.257c0.565-1.485,1.549-2.227,2.929-2.227c1.355,0,2.286,0.764,2.865,2.286
				c0.565,1.526,0.843,4.185,0.843,7.968c0,3.781-0.277,6.417-0.843,7.915c-0.579,1.52-1.51,2.272-2.865,2.272
				c-1.38,0-2.363-0.731-2.929-2.182c-0.568-1.46-0.839-4.127-0.839-8.005C16.17,89.417,16.44,86.74,17.009,85.257z M26.448,105.563
				V80.744h-2.985v2.338c-0.502-0.891-1.138-1.542-1.854-1.98c-0.727-0.45-1.563-0.677-2.504-0.677c-2.097,0-3.627,0.97-4.586,2.915
				c-0.979,1.939-1.468,5.011-1.468,9.206c0,4.811,0.481,8.259,1.433,10.339c0.952,2.085,2.504,3.121,4.621,3.121
				c0.994,0,1.886-0.227,2.645-0.705c0.766-0.476,1.341-1.15,1.713-2.035v2.298H26.448z"/>
		</g>
		<g>
			<path fill="#FFFFFF" d="M35.554,68.559h11.63v3.111h-8.259v13.329h8.125v2.986h-8.125v14.472h8.508v3.107H35.554V68.559z"/>
		</g>
		<g>
			<path fill="#FFFFFF" d="M51.365,100.679c0.763,0.861,1.521,1.506,2.314,1.943c0.805,0.445,1.598,0.661,2.423,0.661
				c1.113,0,2.058-0.365,2.799-1.09c0.733-0.726,1.109-1.661,1.109-2.806c0-1.396-1.271-3.171-3.813-5.33
				c-0.161-0.139-0.281-0.24-0.354-0.306c-2.005-1.699-3.301-3.069-3.897-4.068c-0.587-1.01-0.889-2.113-0.889-3.318
				c0-1.76,0.579-3.206,1.717-4.353c1.148-1.139,2.62-1.713,4.414-1.713c0.748,0,1.503,0.111,2.233,0.319
				c0.744,0.213,1.461,0.543,2.17,0.98v3.203c-0.618-0.606-1.288-1.086-1.994-1.407c-0.71-0.331-1.404-0.49-2.106-0.49
				c-0.983,0-1.826,0.32-2.512,0.962c-0.67,0.64-0.997,1.446-0.997,2.415c0,1.35,1.166,3.005,3.522,4.965
				c0.066,0.068,0.147,0.129,0.189,0.179c2.209,1.836,3.642,3.296,4.263,4.361c0.653,1.068,0.973,2.252,0.973,3.549
				c0,1.971-0.618,3.602-1.871,4.879c-1.25,1.281-2.834,1.917-4.762,1.917c-0.902,0-1.777-0.153-2.63-0.48
				c-0.847-0.325-1.615-0.765-2.301-1.34V100.679z"/>
		</g>
		<g>
			<path fill="#FFFFFF" d="M76.305,81.372v3.561c-0.471-0.565-0.948-0.975-1.44-1.247c-0.487-0.273-1.039-0.401-1.615-0.401
				c-1.583,0-2.753,0.84-3.462,2.508c-0.727,1.673-1.092,4.333-1.092,7.981c0,3.062,0.372,5.365,1.109,6.922
				c0.74,1.555,1.861,2.327,3.343,2.327c0.639,0,1.215-0.161,1.741-0.473c0.527-0.315,0.966-0.795,1.346-1.422v3.63
				c-0.559,0.378-1.146,0.672-1.725,0.847c-0.586,0.177-1.236,0.277-1.906,0.277c-2.174,0-3.891-1.082-5.138-3.25
				c-1.257-2.17-1.886-5.183-1.886-9.032c0-4.37,0.643-7.664,1.917-9.868c1.278-2.197,3.188-3.306,5.752-3.306
				c0.552,0,1.089,0.09,1.615,0.248C75.385,80.833,75.869,81.061,76.305,81.372z"/>
		</g>
		<g>
			<path fill="#FFFFFF" d="M88.837,85.436c0.656,1.694,0.99,4.271,0.99,7.754c0,3.469-0.334,6.034-0.99,7.705
				c-0.646,1.676-1.637,2.516-2.978,2.516c-1.381,0-2.381-0.819-3.021-2.454c-0.639-1.624-0.944-4.241-0.944-7.838
				c0-3.575,0.306-6.18,0.944-7.785c0.64-1.625,1.64-2.427,3.021-2.427C87.2,82.905,88.19,83.748,88.837,85.436z M80.567,102.766
				c1.19,2.163,2.967,3.24,5.348,3.24c2.339,0,4.098-1.079,5.285-3.261c1.195-2.172,1.8-5.389,1.8-9.641
				c0-4.207-0.606-7.399-1.8-9.589c-1.201-2.179-2.975-3.277-5.285-3.277c-2.381,0-4.157,1.078-5.348,3.234
				c-1.197,2.16-1.795,5.37-1.795,9.632C78.772,97.392,79.37,100.62,80.567,102.766z"/>
		</g>
		<g>
			<path fill="#FFFFFF" d="M97.631,80.744h3.045v2.297c0.551-0.867,1.236-1.524,2.038-1.964c0.816-0.429,1.723-0.652,2.757-0.652
				c1.758,0,3.032,0.628,3.836,1.865c0.808,1.251,1.205,3.276,1.205,6.083v17.19h-3.048V87.92c0-1.938-0.218-3.265-0.69-3.995
				c-0.451-0.728-1.25-1.081-2.388-1.081c-1.199,0-2.126,0.517-2.755,1.578c-0.639,1.054-0.955,2.595-0.955,4.636v16.506h-3.045
				V80.744z"/>
		</g>
		<g>
			<path fill="#FFFFFF" d="M118.975,85.257c0.581-1.485,1.554-2.227,2.932-2.227c1.343,0,2.289,0.764,2.861,2.286
				c0.563,1.526,0.857,4.185,0.857,7.968c0,3.781-0.295,6.417-0.857,7.915c-0.572,1.52-1.519,2.272-2.861,2.272
				c-1.378,0-2.351-0.731-2.932-2.182c-0.556-1.46-0.842-4.127-0.842-8.005C118.133,89.417,118.419,86.74,118.975,85.257z
				 M128.406,105.563V66.336h-3.038v16.638c-0.445-0.821-1.025-1.459-1.763-1.897c-0.733-0.429-1.58-0.652-2.54-0.652
				c-2.101,0-3.615,0.97-4.603,2.915c-0.962,1.939-1.438,5.011-1.438,9.206c0,4.811,0.465,8.259,1.415,10.339
				c0.961,2.085,2.506,3.121,4.625,3.121c1.002,0,1.891-0.236,2.647-0.725c0.739-0.478,1.298-1.15,1.655-2.016v2.298H128.406z"/>
		</g>
		<g>
			<path fill="#FFFFFF" d="M135.826,70.912c0.663,0,1.215,0.215,1.657,0.656c0.449,0.442,0.689,0.982,0.689,1.625
				c0,0.612-0.24,1.146-0.689,1.6c-0.458,0.457-1.012,0.684-1.657,0.684c-0.622,0-1.142-0.227-1.605-0.697
				c-0.449-0.463-0.688-1.014-0.688-1.636c0-0.626,0.219-1.156,0.67-1.586C134.632,71.12,135.187,70.912,135.826,70.912z
				 M134.291,80.744h3.122v24.819h-3.122V80.744z"/>
		</g>
		<g>
			<path fill="#FFFFFF" d="M146.248,85.257c0.576-1.485,1.55-2.227,2.932-2.227c1.335,0,2.299,0.764,2.864,2.286
				c0.563,1.526,0.848,4.185,0.848,7.968c0,3.781-0.284,6.417-0.848,7.915c-0.565,1.52-1.529,2.272-2.864,2.272
				c-1.382,0-2.355-0.731-2.932-2.182c-0.563-1.46-0.843-4.127-0.843-8.005C145.405,89.417,145.686,86.74,146.248,85.257z
				 M155.69,105.563V66.336h-3.059v16.638c-0.439-0.821-1.022-1.459-1.742-1.897c-0.733-0.429-1.587-0.652-2.546-0.652
				c-2.096,0-3.623,0.97-4.596,2.915c-0.966,1.939-1.44,5.011-1.44,9.206c0,4.811,0.469,8.259,1.415,10.339
				c0.952,2.085,2.486,3.121,4.621,3.121c1.008,0,1.894-0.236,2.648-0.725c0.746-0.478,1.299-1.15,1.64-2.016v2.298H155.69z"/>
		</g>
		<g>
			<path fill="#FFFFFF" d="M164.518,85.257c0.569-1.485,1.542-2.227,2.933-2.227c1.342,0,2.29,0.764,2.856,2.286
				c0.563,1.526,0.85,4.185,0.85,7.968c0,3.781-0.287,6.417-0.85,7.915c-0.566,1.52-1.515,2.272-2.856,2.272
				c-1.391,0-2.363-0.731-2.933-2.182c-0.57-1.46-0.842-4.127-0.842-8.005C163.676,89.417,163.947,86.74,164.518,85.257z
				 M173.957,105.563V80.744h-2.988v2.338c-0.517-0.891-1.125-1.542-1.851-1.98c-0.727-0.45-1.573-0.677-2.506-0.677
				c-2.095,0-3.622,0.97-4.604,2.915c-0.964,1.939-1.452,5.011-1.452,9.206c0,4.811,0.481,8.259,1.437,10.339
				c0.948,2.085,2.49,3.121,4.619,3.121c0.996,0,1.881-0.227,2.629-0.705c0.774-0.476,1.343-1.15,1.728-2.035v2.298H173.957z"/>
		</g>
	</g>
	<g>
		<g>
			<path fill="#FFFFFF" d="M54.54,111.889c-4.438,7.05-7.233,11.556-8.393,13.519c-1.169,2.002-1.759,3.261-1.759,3.782
				c0,0.53,0.245,0.797,0.73,0.797c1.078,0,2.903-1.872,5.48-5.616c0.07-0.116,0.134-0.174,0.197-0.174
				c0.07,0,0.105,0.032,0.105,0.104c-0.015,0.038-0.074,0.132-0.18,0.284l-0.762,1.044c-2.233,3.081-3.884,4.624-4.947,4.624
				c-0.545,0-0.987-0.205-1.328-0.613c-0.344-0.407-0.516-0.93-0.516-1.568c0-0.637,0.211-1.377,0.639-2.218
				c-2.064,2.932-3.599,4.399-4.6,4.399c-0.629,0-1.152-0.272-1.577-0.807c-0.428-0.54-0.639-1.214-0.639-2.03
				c0-1.95,1.212-3.716,3.631-5.296c1.928-1.267,3.438-1.898,4.537-1.898c0.73,0,1.099,0.354,1.099,1.062
				c0,0.334-0.102,0.705-0.302,1.12l6.335-10.622c0.386,0.121,0.772,0.18,1.148,0.18C53.536,111.96,53.904,111.937,54.54,111.889z
				 M45.993,121.422c0-0.625-0.288-0.939-0.864-0.939c-1.063,0-2.469,1.06-4.206,3.183c-1.745,2.12-2.613,3.833-2.613,5.135
				c0,0.79,0.323,1.185,0.973,1.185c0.948,0,2.567-1.642,4.871-4.932C45.382,123.285,45.993,122.075,45.993,121.422z"/>
			<path fill="#FFFFFF" d="M45.014,130.444c-0.598,0-1.096-0.23-1.475-0.682c-0.373-0.44-0.559-1.01-0.559-1.691
				c0-0.289,0.038-0.599,0.123-0.928c-1.689,2.218-2.968,3.302-3.895,3.302c-0.685,0-1.265-0.296-1.728-0.88
				c-0.453-0.568-0.678-1.292-0.678-2.149c0-2.01,1.25-3.846,3.719-5.459c1.945-1.278,3.504-1.927,4.639-1.927
				c0.814,0,1.261,0.405,1.288,1.174l5.756-9.646l0.144,0.045c0.365,0.108,0.734,0.166,1.093,0.166c0.077,0,0.403-0.018,1.085-0.068
				l0.382-0.028l-0.203,0.321c-4.491,7.132-7.237,11.554-8.393,13.516c-1.429,2.439-1.731,3.349-1.731,3.683
				c0,0.535,0.274,0.605,0.538,0.605c0.691,0,2.173-0.958,5.323-5.53c0.035-0.06,0.154-0.261,0.354-0.261
				c0.176,0,0.295,0.121,0.295,0.296l-0.011,0.064c-0.014,0.041-0.038,0.098-0.203,0.331l-0.763,1.049
				C47.822,128.905,46.154,130.444,45.014,130.444z M43.826,125.847l0.154,0.092c-0.41,0.808-0.621,1.525-0.621,2.131
				c0,0.589,0.158,1.076,0.471,1.446c0.189,0.225,0.414,0.381,0.667,0.463c-0.193-0.165-0.295-0.433-0.295-0.79
				c0-0.561,0.579-1.83,1.78-3.879c1.145-1.933,3.824-6.255,8.192-13.203c-0.386,0.029-0.646,0.045-0.733,0.045
				c-0.348,0-0.706-0.049-1.061-0.144l-6.262,10.491l-0.179-0.097c-0.288,0.691-0.829,1.607-1.63,2.764
				C44.146,125.4,43.984,125.63,43.826,125.847z M43.932,120.629c-0.892,0.282-1.959,0.831-3.199,1.645
				c-2.353,1.538-3.546,3.269-3.546,5.14c0,0.769,0.2,1.411,0.593,1.909c0.215,0.273,0.457,0.467,0.717,0.587
				c-0.222-0.204-0.376-0.547-0.376-1.11c0-1.342,0.892-3.112,2.655-5.256C41.986,122.065,43.033,121.098,43.932,120.629z
				 M45.129,120.674c-1,0-2.366,1.048-4.059,3.112c-1.703,2.075-2.567,3.764-2.567,5.015c0,0.881,0.418,0.994,0.779,0.994
				c0.601,0,1.907-0.84,4.716-4.847c1.198-1.732,1.806-2.918,1.806-3.526C45.804,120.897,45.604,120.674,45.129,120.674z"/>
		</g>
		<g>
			<path fill="#FFFFFF" d="M59.895,124.3c0,0.038-0.108,0.189-0.319,0.464l-0.762,0.953c-2.447,3.022-4.548,4.534-6.296,4.534
				c-0.829,0-1.524-0.3-2.086-0.896c-0.562-0.597-0.843-1.342-0.843-2.241c0-2.128,1.485-4,4.456-5.619
				c1.559-0.852,2.837-1.275,3.817-1.275c0.425,0,0.79,0.127,1.088,0.381c0.306,0.253,0.457,0.563,0.457,0.927
				c0,0.85-0.559,1.574-1.668,2.168c-1.117,0.596-2.975,1.152-5.576,1.67c-0.805,1.217-1.208,2.231-1.208,3.048
				c0,1.019,0.548,1.524,1.65,1.524c1.868,0,4.154-1.821,6.865-5.462c0.14-0.189,0.26-0.281,0.354-0.281
				C59.874,124.208,59.895,124.244,59.895,124.3z M58.428,121.024c0-0.376-0.211-0.565-0.629-0.565
				c-0.625,0-1.454,0.433-2.479,1.299c-1.025,0.868-2.029,1.99-3.017,3.372c1.711-0.439,3.157-1.055,4.341-1.852
				C57.83,122.485,58.428,121.732,58.428,121.024z"/>
			<path fill="#FFFFFF" d="M52.518,130.444c-0.878,0-1.626-0.325-2.223-0.956c-0.598-0.63-0.896-1.43-0.896-2.374
				c0-2.194,1.53-4.139,4.554-5.787c1.581-0.861,2.897-1.299,3.909-1.299c0.47,0,0.878,0.142,1.211,0.427
				c0.348,0.288,0.523,0.653,0.523,1.074c0,0.923-0.594,1.709-1.77,2.338c-1.113,0.595-2.979,1.155-5.552,1.673
				c-0.748,1.15-1.127,2.116-1.127,2.875c0,0.909,0.463,1.333,1.457,1.333c1.794,0,4.052-1.813,6.71-5.384
				c0.187-0.246,0.348-0.36,0.51-0.36l0.049,0.005c0.13,0.032,0.214,0.146,0.214,0.291c0,0.081-0.018,0.138-0.361,0.58l-0.762,0.958
				C56.489,128.894,54.318,130.444,52.518,130.444z M56.672,120.586c-0.734,0.199-1.584,0.559-2.532,1.08
				c-2.89,1.573-4.357,3.408-4.357,5.448c0,0.854,0.256,1.545,0.793,2.11c0.253,0.271,0.53,0.476,0.84,0.613
				c-0.429-0.279-0.653-0.759-0.653-1.422c0-0.809,0.379-1.813,1.127-2.984l-0.045,0.012l0.305-0.423
				c0.99-1.39,2.013-2.534,3.048-3.408C55.741,121.152,56.229,120.812,56.672,120.586z M57.799,120.65
				c-0.576,0-1.369,0.424-2.353,1.254c-0.902,0.758-1.795,1.73-2.665,2.895c1.453-0.419,2.718-0.982,3.757-1.678
				c1.124-0.758,1.692-1.461,1.692-2.097C58.23,120.8,58.16,120.65,57.799,120.65z M58.455,120.518
				c0.102,0.128,0.162,0.296,0.162,0.507c0,0.784-0.611,1.574-1.865,2.414c-0.716,0.48-1.534,0.899-2.44,1.252
				c1.465-0.372,2.581-0.759,3.333-1.163c1.057-0.565,1.569-1.218,1.569-2c0-0.307-0.126-0.565-0.383-0.783
				C58.712,120.648,58.589,120.572,58.455,120.518z"/>
		</g>
		<g>
			<path fill="#FFFFFF" d="M74.738,123.055c0,1.927-1.197,3.68-3.596,5.266c-1.949,1.285-3.473,1.931-4.572,1.931
				c-0.751,0-1.131-0.354-1.131-1.064c0-0.213,0.06-0.501,0.176-0.867l-6.784,11.339c-0.418-0.095-0.751-0.14-1.015-0.14
				c-0.39,0-0.776,0.068-1.152,0.21l14.552-23.938c0.319,0.104,0.632,0.158,0.938,0.158c0.32,0,0.713-0.054,1.17-0.158l-5.261,8.503
				c1.261-1.676,2.181-2.776,2.753-3.296c0.569-0.519,1.142-0.779,1.71-0.779c0.622,0,1.148,0.272,1.573,0.816
				C74.523,121.578,74.738,122.25,74.738,123.055z M73.421,121.635c0-0.767-0.344-1.152-1.028-1.152
				c-0.86,0-2.307,1.389-4.337,4.167c-1.569,2.152-2.353,3.628-2.353,4.431c0,0.603,0.273,0.906,0.832,0.906
				c1.082,0,2.504-1.06,4.256-3.183C72.543,124.683,73.421,122.958,73.421,121.635z"/>
			<path fill="#FFFFFF" d="M56.212,140.104l0.288-0.473l14.636-24.071l0.144,0.05c0.299,0.1,0.594,0.152,0.874,0.152
				c0.303,0,0.682-0.053,1.128-0.156l0.449-0.104l-3.817,6.165c0.306-0.346,0.563-0.618,0.772-0.808
				c0.607-0.551,1.226-0.831,1.84-0.831c0.682,0,1.261,0.301,1.725,0.888c0.449,0.578,0.678,1.295,0.678,2.139
				c0,1.986-1.236,3.81-3.68,5.422c-1.998,1.323-3.529,1.967-4.678,1.967c-0.825,0-1.274-0.396-1.32-1.141l-6.328,10.574
				l-0.137-0.031c-0.396-0.089-0.723-0.137-0.969-0.137c-0.365,0-0.73,0.068-1.085,0.201L56.212,140.104z M57.816,139.325
				c0.249,0,0.551,0.038,0.92,0.116l6.718-11.22l0.207,0.092c0.295-0.88,1.036-2.125,2.24-3.777
				c0.056-0.075,0.112-0.152,0.165-0.227l-0.169-0.116l5.032-8.127c-0.653,0.114-1.106,0.102-1.626-0.046l-14.218,23.387
				C57.324,139.352,57.57,139.325,57.816,139.325z M73.221,120.556c0.229,0.196,0.394,0.53,0.394,1.08
				c0,1.365-0.902,3.145-2.672,5.289c-1.257,1.517-2.332,2.494-3.259,2.952c0.916-0.275,2.04-0.848,3.354-1.716
				c2.328-1.538,3.508-3.256,3.508-5.105c0-0.755-0.2-1.396-0.597-1.902C73.73,120.875,73.488,120.677,73.221,120.556z
				 M72.393,120.674c-0.545,0-1.714,0.71-4.183,4.09c-1.538,2.108-2.317,3.559-2.317,4.316c0,0.501,0.193,0.714,0.643,0.714
				c1.019,0,2.402-1.046,4.108-3.112c1.714-2.075,2.585-3.775,2.585-5.048C73.229,120.97,72.972,120.674,72.393,120.674z"/>
		</g>
		<g>
			<path fill="#FFFFFF" d="M88.408,124.3c0,0.251-0.86,1.394-2.588,3.437c-1.395,1.675-2.496,2.515-3.297,2.515
				c-0.545,0-0.99-0.205-1.331-0.613c-0.345-0.407-0.513-0.918-0.513-1.533c0-0.639,0.189-1.33,0.565-2.076
				c-1.184,1.657-2.09,2.773-2.718,3.351c-0.625,0.578-1.236,0.871-1.83,0.871c-0.625,0-1.155-0.272-1.58-0.807
				c-0.425-0.54-0.639-1.214-0.639-2.03c0-2.27,1.601-4.276,4.807-6.023c1.405-0.783,2.546-1.171,3.406-1.171
				c0.734,0,1.1,0.354,1.1,1.062c0,0.204-0.05,0.472-0.141,0.8l0.902-1.718c0.354,0.081,0.667,0.123,0.941,0.123
				c0.319,0,0.733-0.042,1.243-0.123l-3.136,5.192c-1.089,1.82-1.63,3.018-1.63,3.597c0,0.554,0.229,0.833,0.692,0.833
				c0.474,0,1.229-0.539,2.268-1.62c1.043-1.08,2.101-2.412,3.178-3.996c0.07-0.116,0.138-0.174,0.193-0.174
				C88.373,124.196,88.408,124.229,88.408,124.3z M83.527,121.354c0-0.58-0.267-0.871-0.797-0.871c-1.089,0-2.515,1.064-4.284,3.192
				c-1.77,2.127-2.651,3.848-2.651,5.159c0,0.77,0.344,1.152,1.029,1.152c0.814,0,2.229-1.354,4.238-4.058
				C82.706,123.704,83.527,122.18,83.527,121.354z"/>
			<path fill="#FFFFFF" d="M82.523,130.444c-0.601,0-1.1-0.23-1.479-0.682c-0.369-0.44-0.559-0.996-0.559-1.656
				c0-0.275,0.035-0.559,0.102-0.852c-0.804,1.069-1.443,1.817-1.931,2.267c-0.66,0.613-1.32,0.923-1.96,0.923
				c-0.685,0-1.264-0.296-1.728-0.88c-0.453-0.568-0.681-1.292-0.681-2.149c0-2.333,1.646-4.416,4.905-6.193
				c1.429-0.791,2.605-1.193,3.497-1.193c0.766,0,1.201,0.357,1.278,1.033l0.484-0.917l0.145,0.033
				c0.337,0.078,0.639,0.121,0.896,0.121c0.309,0,0.713-0.043,1.211-0.124l0.407-0.066l-3.35,5.547
				c-1.32,2.22-1.598,3.126-1.598,3.498c0,0.566,0.253,0.642,0.499,0.642c0.284,0,0.888-0.27,2.131-1.562
				c1.025-1.065,2.086-2.403,3.153-3.969c0.066-0.109,0.179-0.261,0.354-0.261c0.18,0,0.299,0.121,0.299,0.296
				c0,0.156,0,0.445-2.634,3.56C84.521,129.599,83.394,130.444,82.523,130.444z M81.241,126.009l0.176,0.106
				c-0.365,0.714-0.544,1.384-0.544,1.99c0,0.565,0.154,1.041,0.467,1.408c0.218,0.258,0.471,0.424,0.772,0.497
				c-0.187-0.141-0.334-0.399-0.334-0.857c0-0.617,0.545-1.827,1.657-3.694l2.926-4.847c-0.691,0.092-1.1,0.095-1.707-0.031
				l-0.836,1.59l-0.234-0.095C83.289,122.984,82.513,124.281,81.241,126.009z M81.593,120.586c-0.64,0.183-1.377,0.509-2.216,0.971
				c-3.122,1.704-4.705,3.675-4.705,5.857c0,0.771,0.199,1.411,0.597,1.909c0.218,0.275,0.456,0.471,0.727,0.592
				c-0.229-0.196-0.394-0.532-0.394-1.082c0-1.354,0.906-3.13,2.697-5.282C79.57,122.021,80.658,121.041,81.593,120.586z
				 M82.73,120.674c-1.025,0-2.416,1.051-4.137,3.125c-1.728,2.08-2.605,3.775-2.605,5.036c0,0.666,0.256,0.961,0.836,0.961
				c0.513,0,1.64-0.69,4.084-3.98c1.611-2.18,2.43-3.683,2.43-4.461C83.338,120.878,83.155,120.674,82.73,120.674z"/>
		</g>
		<g>
			<path fill="#FFFFFF" d="M97.728,111.724c-4.963,8.262-7.858,13.12-8.677,14.574c-0.825,1.455-1.232,2.418-1.232,2.892
				c0,0.53,0.225,0.797,0.674,0.797c0.994,0,2.816-1.872,5.466-5.616c0.063-0.116,0.13-0.174,0.216-0.174
				c0.048,0.011,0.072,0.047,0.072,0.104c0,0.071-0.06,0.168-0.179,0.284l-0.763,1.044c-2.234,3.081-3.882,4.624-4.945,4.624
				c-0.513,0-0.928-0.194-1.25-0.578c-0.33-0.383-0.488-0.871-0.488-1.462c0-0.65,0.147-1.28,0.449-1.891
				c0.302-0.607,1.327-2.364,3.076-5.272c2.137-3.557,3.938-6.643,5.402-9.255c0.352,0.095,0.667,0.142,0.941,0.142
				C96.936,111.934,97.351,111.864,97.728,111.724z"/>
			<path fill="#FFFFFF" d="M88.359,130.444c-0.565,0-1.036-0.218-1.397-0.646c-0.354-0.415-0.53-0.949-0.53-1.586
				c0-0.679,0.154-1.344,0.471-1.974c0.298-0.613,1.306-2.343,3.079-5.289c2.128-3.543,3.945-6.657,5.402-9.249l0.07-0.13
				l0.147,0.038c0.337,0.09,0.636,0.138,0.889,0.138c0.418,0,0.811-0.068,1.173-0.201l0.513-0.189l-0.281,0.469
				c-5.037,8.38-7.874,13.146-8.679,14.568c-0.997,1.768-1.208,2.5-1.208,2.798c0,0.535,0.246,0.605,0.484,0.605
				c0.633,0,2.072-0.958,5.31-5.533c0.104-0.21,0.26-0.258,0.372-0.258l0.048,0.007c0.132,0.034,0.214,0.145,0.214,0.289
				c0,0.128-0.075,0.261-0.235,0.421l-0.74,1.022C91.165,128.905,89.497,130.444,88.359,130.444z M95.646,112.015
				c-1.445,2.573-3.239,5.642-5.334,9.133c-1.767,2.937-2.771,4.658-3.065,5.261c-0.288,0.575-0.436,1.184-0.436,1.803
				c0,0.55,0.147,0.989,0.442,1.338c0.193,0.227,0.422,0.378,0.682,0.454c-0.176-0.14-0.31-0.388-0.31-0.814
				c0-0.511,0.411-1.489,1.258-2.985c0.793-1.405,3.553-6.037,8.433-14.162C96.823,112.147,96.321,112.175,95.646,112.015z"/>
		</g>
		<g>
			<path fill="#FFFFFF" d="M103.195,124.3c0,0.038-0.107,0.189-0.318,0.464l-0.764,0.953c-2.447,3.022-4.545,4.534-6.292,4.534
				c-0.831,0-1.526-0.3-2.088-0.896c-0.562-0.597-0.843-1.342-0.843-2.241c0-2.128,1.485-4,4.453-5.619
				c1.563-0.852,2.837-1.275,3.818-1.275c0.429,0,0.79,0.127,1.09,0.381c0.306,0.253,0.453,0.563,0.453,0.927
				c0,0.85-0.555,1.574-1.666,2.168c-1.115,0.596-2.971,1.152-5.576,1.67c-0.806,1.217-1.206,2.231-1.206,3.048
				c0,1.019,0.548,1.524,1.648,1.524c1.866,0,4.156-1.821,6.868-5.462c0.138-0.189,0.259-0.281,0.35-0.281
				C103.172,124.208,103.195,124.244,103.195,124.3z M101.726,121.024c0-0.376-0.209-0.565-0.625-0.565
				c-0.629,0-1.454,0.433-2.479,1.299c-1.025,0.868-2.033,1.99-3.016,3.372c1.706-0.439,3.154-1.055,4.34-1.852
				C101.132,122.485,101.726,121.732,101.726,121.024z"/>
			<path fill="#FFFFFF" d="M95.821,130.444c-0.882,0-1.628-0.325-2.229-0.956c-0.593-0.632-0.892-1.43-0.892-2.374
				c0-2.194,1.533-4.139,4.555-5.787c1.58-0.861,2.894-1.299,3.906-1.299c0.473,0,0.878,0.142,1.213,0.427
				c0.348,0.288,0.523,0.653,0.523,1.074c0,0.921-0.597,1.709-1.773,2.338c-1.107,0.595-2.974,1.157-5.545,1.673
				c-0.755,1.15-1.13,2.116-1.13,2.875c0,0.909,0.46,1.333,1.455,1.333c1.796,0,4.054-1.813,6.709-5.384
				c0.189-0.246,0.348-0.36,0.509-0.36c0.183,0.038,0.266,0.149,0.266,0.296c0,0.081-0.02,0.14-0.36,0.58l-0.764,0.958
				C99.754,128.936,97.646,130.444,95.821,130.444z M99.97,120.586c-0.731,0.199-1.58,0.559-2.531,1.08
				c-2.891,1.573-4.356,3.408-4.356,5.448c0,0.854,0.258,1.545,0.792,2.11c0.255,0.271,0.534,0.476,0.841,0.613
				c-0.428-0.279-0.651-0.759-0.651-1.422c0-0.809,0.38-1.813,1.131-2.984l-0.049,0.012l0.304-0.423
				c0.993-1.392,2.021-2.537,3.048-3.408C99.043,121.152,99.531,120.812,99.97,120.586z M101.101,120.65
				c-0.576,0-1.369,0.424-2.356,1.254c-0.896,0.755-1.791,1.728-2.661,2.895c1.453-0.419,2.718-0.982,3.757-1.678
				c1.124-0.758,1.692-1.461,1.692-2.097C101.532,120.8,101.459,120.65,101.101,120.65z M101.754,120.518
				c0.105,0.128,0.165,0.296,0.165,0.507c0,0.784-0.613,1.574-1.868,2.414c-0.717,0.48-1.531,0.899-2.444,1.252
				c1.472-0.37,2.588-0.759,3.34-1.163c1.057-0.565,1.565-1.218,1.565-2c0-0.307-0.124-0.565-0.379-0.783
				C102.014,120.648,101.889,120.572,101.754,120.518z"/>
		</g>
		<g>
			<path fill="#FFFFFF" d="M113.293,124.3c0,0.095-0.355,0.523-1.064,1.288c-0.898,0.984-1.747,1.479-2.542,1.479
				c-0.896,0-1.347-0.521-1.347-1.558c0-0.332,0.068-0.75,0.212-1.254c-0.744,0.649-1.349,1.29-1.815,1.929
				s-1.271,1.938-2.419,3.898c-0.629-0.047-0.99-0.069-1.1-0.069c-0.046,0-0.407,0.021-1.081,0.069l2.916-4.712
				c1.459-2.359,2.186-3.822,2.186-4.39c0-0.331-0.137-0.497-0.407-0.497c-0.663,0-1.864,1.272-3.606,3.819
				c-0.108,0.167-0.199,0.249-0.284,0.249c-0.046-0.012-0.073-0.047-0.073-0.104c0.014-0.062,0.037-0.109,0.073-0.144l0.319-0.445
				c1.821-2.423,3.056-3.637,3.709-3.637c0.944,0,1.418,0.607,1.418,1.824c0,0.907-0.484,2.111-1.453,3.609
				c0.617-0.708,1.197-1.287,1.756-1.735c0.445-1.051,1.002-1.931,1.668-2.636c0.663-0.708,1.264-1.062,1.792-1.062
				c0.365,0,0.546,0.158,0.546,0.478c0,0.565-0.821,1.373-2.461,2.424c-0.26,0.163-0.651,0.405-1.168,0.724l-0.214,0.175
				c-0.167,0.542-0.251,0.992-0.251,1.344c0,0.992,0.372,1.486,1.12,1.486c0.923,0,1.931-0.756,3.02-2.269
				c0.237-0.258,0.386-0.385,0.448-0.385C113.258,124.196,113.293,124.229,113.293,124.3z"/>
			<path fill="#FFFFFF" d="M101.778,130.302l3.114-5.031c1.779-2.887,2.154-3.929,2.154-4.291c0-0.306-0.128-0.306-0.216-0.306
				c-0.335,0-1.226,0.486-3.446,3.737c-0.093,0.14-0.237,0.331-0.444,0.331c-0.179-0.035-0.262-0.149-0.262-0.296
				c0.023-0.137,0.065-0.218,0.129-0.279l0.298-0.421c2.5-3.332,3.399-3.718,3.863-3.718c0.733,0,1.611,0.351,1.611,2.017
				c0,0.635-0.229,1.411-0.676,2.31c0.212-0.201,0.423-0.388,0.627-0.554c0.453-1.048,1.018-1.94,1.686-2.65
				c0.709-0.755,1.341-1.122,1.933-1.122c0.469,0,0.739,0.244,0.739,0.67c0,0.649-0.812,1.47-2.549,2.584
				c-0.264,0.166-0.657,0.407-1.177,0.727l-0.144,0.123c-0.148,0.497-0.226,0.911-0.226,1.233c0,1.16,0.53,1.294,0.928,1.294
				c0.856,0,1.82-0.738,2.865-2.189c0.363-0.397,0.484-0.466,0.603-0.466c0.177,0,0.296,0.121,0.296,0.296
				c0,0.107,0,0.218-1.116,1.417c-0.935,1.023-1.837,1.541-2.683,1.541c-0.699,0-1.538-0.303-1.538-1.749
				c0-0.204,0.027-0.436,0.073-0.698c-0.526,0.499-0.976,0.998-1.331,1.486c-0.46,0.626-1.271,1.933-2.408,3.883l-0.06,0.102
				l-0.12-0.01c-0.665-0.052-0.997-0.068-1.085-0.068c-0.038,0-0.361,0.02-1.063,0.068L101.778,130.302z M103.218,129.821
				c0.116,0,0.478,0.021,0.994,0.062c1.131-1.929,1.903-3.176,2.37-3.811c0.102-0.14,0.211-0.281,0.326-0.419l-0.135-0.104
				c0.944-1.458,1.424-2.639,1.424-3.505c0-1.231-0.495-1.545-0.967-1.614c0.113,0.097,0.199,0.265,0.199,0.549
				c0,0.608-0.725,2.078-2.214,4.492l-2.718,4.395C102.896,129.837,103.169,129.821,103.218,129.821z M112.149,120.412
				c-0.472,0-1.028,0.338-1.652,1c-0.574,0.608-1.069,1.361-1.478,2.24c0.498-0.311,0.863-0.537,1.112-0.693
				c1.962-1.257,2.374-1.922,2.374-2.261C112.506,120.551,112.478,120.412,112.149,120.412z"/>
		</g>
		<g>
			<path fill="#FFFFFF" d="M133.006,124.3c-0.014,0.038-0.07,0.132-0.176,0.284l-0.762,1.044c-2.219,3.081-3.861,4.624-4.92,4.624
				c-0.558,0-1.011-0.208-1.363-0.622c-0.357-0.412-0.536-0.944-0.536-1.595c0-0.66,0.225-1.377,0.673-2.146
				c0.088-0.14,0.514-0.771,1.294-1.896c0.986-1.417,1.485-2.346,1.485-2.784c0-0.482-0.246-0.726-0.73-0.726
				c-1.56,0-4.238,3.201-8.034,9.599c-0.235-0.047-0.563-0.069-0.979-0.069c-0.485,0-0.901,0.021-1.247,0.069l2.53-3.986
				c1.646-2.62,2.476-4.224,2.476-4.816c0-0.53-0.22-0.797-0.658-0.797c-0.651,0-1.718,0.932-3.199,2.799
				c-1.477,1.863-2.946,4.132-4.403,6.799c-0.272-0.047-0.622-0.069-1.047-0.069c-0.46,0-0.863,0.021-1.204,0.069l2.531-3.986
				c1.742-2.735,2.616-4.432,2.616-5.081c0-0.354-0.137-0.532-0.407-0.532c-0.583,0-1.78,1.272-3.603,3.819
				c-0.123,0.167-0.216,0.249-0.288,0.249c-0.048-0.012-0.07-0.047-0.07-0.104c0-0.109,0.544-0.849,1.637-2.222
				c1.067-1.334,1.889-2.004,2.469-2.004c0.382,0,0.709,0.18,0.979,0.542c0.271,0.36,0.407,0.789,0.407,1.285
				c0,0.687-0.348,1.637-1.047,2.854c2.132-3.122,3.716-4.681,4.755-4.681c0.499,0,0.906,0.201,1.226,0.603
				c0.319,0.4,0.478,0.904,0.478,1.506c0,0.674-0.313,1.533-0.941,2.572c2.251-3.122,3.94-4.681,5.065-4.681
				c0.51,0,0.939,0.218,1.292,0.655c0.347,0.438,0.521,0.971,0.521,1.595c0,0.734-0.289,1.591-0.869,2.57
				c-0.012,0.012-0.518,0.769-1.519,2.27c-0.579,0.852-0.869,1.503-0.869,1.951c0,0.482,0.241,0.726,0.726,0.726
				c0.92,0,2.44-1.488,4.564-4.463l0.548-0.759l0.316-0.394c0.06-0.116,0.119-0.174,0.181-0.174
				C132.971,124.196,133.006,124.229,133.006,124.3z"/>
			<path fill="#FFFFFF" d="M127.148,130.444c-0.612,0-1.123-0.234-1.512-0.692c-0.384-0.444-0.577-1.021-0.577-1.718
				c0-0.693,0.235-1.449,0.698-2.243c0.09-0.154,0.554-0.831,1.302-1.906c1.197-1.72,1.448-2.404,1.448-2.677
				c0-0.378-0.156-0.535-0.537-0.535c-1.019,0-3.211,1.65-7.869,9.507l-0.07,0.116l-0.134-0.025
				c-0.218-0.045-0.526-0.067-0.94-0.067c-0.492,0-0.891,0.022-1.219,0.068l-0.411,0.06l2.751-4.338
				c2.023-3.211,2.442-4.335,2.442-4.714c0-0.535-0.235-0.606-0.463-0.606c-0.406,0-1.261,0.474-3.048,2.727
				c-1.467,1.848-2.943,4.127-4.389,6.772l-0.064,0.121l-0.134-0.022c-0.26-0.046-0.586-0.068-1.015-0.068
				c-0.463,0-0.852,0.022-1.178,0.068l-0.413,0.06l2.753-4.338c2.139-3.354,2.59-4.56,2.59-4.979c0-0.341-0.132-0.341-0.216-0.341
				c-0.288,0-1.12,0.488-3.448,3.742c-0.165,0.225-0.299,0.327-0.442,0.327c-0.179-0.035-0.264-0.149-0.264-0.296
				c0-0.109,0-0.229,1.679-2.338c1.115-1.401,1.972-2.081,2.62-2.081c0.442,0,0.821,0.208,1.132,0.618
				c0.299,0.393,0.449,0.864,0.449,1.401c0,0.314-0.068,0.672-0.198,1.079c1.588-2.081,2.81-3.098,3.712-3.098
				c0.555,0,1.019,0.228,1.377,0.677c0.342,0.436,0.516,0.982,0.516,1.625c0,0.293-0.056,0.622-0.165,0.981
				c1.756-2.206,3.101-3.283,4.1-3.283c0.567,0,1.056,0.244,1.438,0.727c0.379,0.473,0.565,1.048,0.565,1.715
				c0,0.765-0.299,1.662-0.894,2.668l-0.03,0.038c-0.021,0.035-0.53,0.794-1.496,2.241c-0.557,0.816-0.834,1.434-0.834,1.844
				c0,0.378,0.153,0.534,0.532,0.534c0.588,0,1.826-0.759,4.408-4.383l0.55-0.762l0.323-0.397c0.07-0.154,0.186-0.249,0.328-0.249
				c0.176,0,0.293,0.121,0.293,0.296l-0.007,0.064c-0.016,0.043-0.053,0.111-0.203,0.331l-0.763,1.049
				C129.944,128.905,128.283,130.444,127.148,130.444z M128.715,120.601c0.116,0.151,0.174,0.357,0.174,0.607
				c0,0.308-0.156,0.94-1.519,2.895c-1.036,1.496-1.243,1.815-1.283,1.882c-0.429,0.735-0.645,1.425-0.645,2.049
				c0,0.601,0.165,1.096,0.488,1.47c0.209,0.248,0.456,0.414,0.748,0.495c-0.197-0.154-0.303-0.405-0.303-0.738
				c0-0.495,0.295-1.167,0.899-2.057c1.176-1.761,1.446-2.161,1.517-2.262c0.555-0.942,0.84-1.772,0.84-2.471
				c0-0.584-0.158-1.067-0.481-1.477C129.017,120.828,128.873,120.698,128.715,120.601z M113.408,129.821
				c0.378,0,0.69,0.016,0.945,0.052c1.008-1.841,2.032-3.507,3.06-4.972l-0.149-0.095c0.678-1.183,1.022-2.111,1.022-2.759
				c0-0.452-0.125-0.847-0.369-1.172c-0.168-0.219-0.351-0.359-0.562-0.423c0.108,0.104,0.188,0.279,0.188,0.563
				c0,0.696-0.869,2.391-2.647,5.186l-2.315,3.652C112.827,129.83,113.103,129.821,113.408,129.821z M118.957,129.821
				c0.361,0,0.652,0.016,0.881,0.052c1.155-1.945,2.205-3.587,3.15-4.934l-0.202-0.135c0.604-1.005,0.907-1.838,0.907-2.475
				c0-0.561-0.141-1.016-0.436-1.387c-0.183-0.232-0.395-0.386-0.643-0.466c0.164,0.142,0.292,0.388,0.292,0.804
				c0,0.403-0.26,1.352-2.504,4.918l-2.317,3.654C118.342,129.83,118.63,129.821,118.957,129.821z"/>
		</g>
		<g>
			<path fill="#FFFFFF" d="M143.533,124.255c0,0.187-0.351,0.629-1.046,1.326c-1.041,1.039-1.998,1.557-2.876,1.557
				c-0.363,0-0.69-0.069-0.975-0.213c-1.558,2.218-3.025,3.327-4.395,3.327c-0.709,0-1.316-0.295-1.819-0.877
				c-0.502-0.585-0.753-1.286-0.753-2.102c0-1.82,1.195-3.574,3.585-5.263c1.681-1.196,3.063-1.789,4.152-1.789
				c1.017,0,1.527,0.542,1.527,1.63c0,1.356-0.712,2.993-2.144,4.908c0.237,0.142,0.501,0.21,0.797,0.21
				c0.53,0,1.15-0.249,1.858-0.745c0.707-0.497,1.285-1.094,1.732-1.792c0.126-0.166,0.222-0.251,0.282-0.251
				C143.509,124.181,143.533,124.205,143.533,124.255z M140.672,121.891c0-0.954-0.431-1.432-1.296-1.432
				c-1.078,0-2.392,1.027-3.943,3.079c-1.549,2.052-2.326,3.779-2.326,5.18c0,0.815,0.393,1.221,1.174,1.221
				c1.278,0,2.676-1.048,4.191-3.15c-0.346-0.375-0.517-0.764-0.517-1.167c0-0.578,0.232-1.171,0.69-1.787
				c0.464-0.612,0.913-0.918,1.352-0.918c0.19,0,0.319,0.119,0.39,0.353C140.575,122.858,140.672,122.397,140.672,121.891z"/>
			<path fill="#FFFFFF" d="M134.242,130.444c-0.766,0-1.426-0.319-1.963-0.944c-0.53-0.618-0.799-1.368-0.799-2.228
				c0-1.876,1.234-3.701,3.666-5.419c1.705-1.209,3.138-1.825,4.261-1.825c1.126,0,1.721,0.629,1.721,1.823
				c0,1.349-0.688,2.975-2.051,4.837c0.569,0.225,1.338,0.031,2.258-0.62c0.685-0.48,1.25-1.065,1.683-1.739
				c0.189-0.249,0.313-0.339,0.443-0.339c0.155,0,0.266,0.111,0.266,0.265c0,0.185-0.137,0.493-1.106,1.46
				c-1.072,1.073-2.085,1.614-3.009,1.614c-0.33,0-0.636-0.054-0.908-0.163C137.143,129.34,135.644,130.444,134.242,130.444z
				 M138.034,120.687c-0.782,0.276-1.675,0.771-2.669,1.479c-2.324,1.643-3.504,3.362-3.504,5.106c0,0.765,0.238,1.429,0.707,1.976
				c0.252,0.294,0.525,0.504,0.827,0.637c-0.317-0.229-0.478-0.623-0.478-1.167c0-1.438,0.794-3.221,2.363-5.296
				C136.296,122.075,137.209,121.167,138.034,120.687z M139.376,120.65c-1.006,0-2.282,1.009-3.791,3.001
				c-1.519,2.008-2.287,3.712-2.287,5.066c0,0.713,0.304,1.03,0.982,1.03c1.181,0,2.508-0.992,3.944-2.946
				c-0.305-0.379-0.461-0.772-0.461-1.179c0-0.613,0.246-1.254,0.729-1.9c0.508-0.669,1.001-0.996,1.505-0.996
				c0.094,0,0.226,0.021,0.347,0.12c0.093-0.296,0.137-0.615,0.137-0.956C140.48,121.045,140.127,120.65,139.376,120.65z
				 M139.997,123.109c-0.372,0-0.775,0.284-1.197,0.843c-0.43,0.578-0.653,1.14-0.653,1.67c0,0.35,0.155,0.701,0.464,1.04
				l0.007,0.007l0.018-0.023c0.787-1.048,1.352-2.019,1.699-2.897l-0.128-0.421C140.138,123.109,140.043,123.109,139.997,123.109z"
				/>
		</g>
	</g>
	<g>
		<path fill="#FFFFFF" d="M93.733,19.987c0,10.387-8.587,18.814-19.175,18.814c-10.59,0-19.169-8.427-19.169-18.814
			c0-10.393,8.579-18.826,19.169-18.826C85.146,1.161,93.733,9.594,93.733,19.987z"/>
	</g>
	<g>
		<path fill="#FFFFFF" d="M98.933,34.612c-2.931,0-5.778-0.801-8.231-2.316l1.525-2.472c1.995,1.231,4.313,1.881,6.706,1.881
			c6.773,0,12.277-5.206,12.277-11.606c0-6.394-5.504-11.596-12.277-11.596c-2.688,0-5.246,0.809-7.399,2.339l-1.682-2.37
			c2.645-1.881,5.785-2.874,9.081-2.874c8.373,0,15.185,6.503,15.185,14.5C114.117,28.102,107.306,34.612,98.933,34.612z"/>
	</g>
	<g>
		<path fill="#FFFFFF" d="M74.686,40.322c-11.311,0-20.514-9.042-20.514-20.155C54.172,9.046,63.375,0,74.686,0
			s20.511,9.046,20.511,20.167C95.196,31.28,85.996,40.322,74.686,40.322z M74.686,2.68c-9.832,0-17.831,7.846-17.831,17.487
			c0,9.635,7.999,17.474,17.831,17.474c9.828,0,17.828-7.839,17.828-17.474C92.514,10.526,84.514,2.68,74.686,2.68z"/>
	</g>
	<g>
		<rect x="97.804" y="26.521" fill="#FFFFFF" width="2.676" height="22.312"/>
	</g>
	<g>
		<rect x="73.632" y="32.969" fill="#FFFFFF" width="2.799" height="24.795"/>
	</g>
</g>
</svg>
