<?xml version="1.0" encoding="utf-8"?>
<!-- Generator: Adobe Illustrator 16.0.0, SVG Export Plug-In . SVG Version: 6.00 Build 0)  -->
<!DOCTYPE svg PUBLIC "-//W3C//DTD SVG 1.1//EN" "http://www.w3.org/Graphics/SVG/1.1/DTD/svg11.dtd">
<svg version="1.1" id="Layer_1" xmlns="http://www.w3.org/2000/svg" xmlns:xlink="http://www.w3.org/1999/xlink" x="0px" y="0px"
	 width="76px" height="57.833px" viewBox="0 0 76 57.833" enable-background="new 0 0 76 57.833" xml:space="preserve">
<g>
	<path fill="#D02322" d="M60.346,44.72c0-1.195-0.804-2.206-1.896-2.522c1.164-1.081,1.896-2.624,1.896-4.335
		c0-1.448-1.178-2.626-2.625-2.626h-5.918c4.494-3.636,7.372-9.194,7.372-15.412C59.175,8.894,50.282,0,39.351,0
		c-5.507,0-10.812,2.32-14.554,6.364c-0.315,0.341-0.295,0.874,0.045,1.19c0.342,0.316,0.876,0.295,1.19-0.046
		c3.426-3.702,8.278-5.823,13.318-5.823c10.004,0,18.142,8.137,18.142,18.139c0,6.501-3.439,12.21-8.591,15.413H29.799
		c-5.151-3.203-8.588-8.912-8.588-15.413c0-3.494,0.995-6.887,2.878-9.81c0.253-0.392,0.14-0.912-0.251-1.164
		c-0.392-0.252-0.912-0.139-1.164,0.252c-2.061,3.196-3.147,6.904-3.147,10.722c0,6.218,2.88,11.776,7.372,15.413H20.98
		c-1.447,0-2.625,1.178-2.625,2.626c0,1.711,0.73,3.254,1.896,4.335c-1.094,0.316-1.896,1.327-1.896,2.522
		c0,1.71,0.73,3.252,1.896,4.334c-1.094,0.317-1.896,1.327-1.896,2.521c0,3.263,2.653,5.916,5.916,5.916h30.16
		c3.261,0,5.914-2.653,5.914-5.916c0-1.194-0.801-2.204-1.895-2.521C59.616,47.973,60.346,46.431,60.346,44.72 M20.039,37.863
		c0-0.519,0.422-0.941,0.941-0.941h36.74c0.52,0,0.941,0.422,0.941,0.941c0,2.327-1.889,4.221-4.213,4.231H24.252
		C21.928,42.084,20.039,40.19,20.039,37.863 M58.662,51.575c0,2.333-1.897,4.231-4.23,4.231h-30.16
		c-2.334,0-4.232-1.898-4.232-4.231c0-0.519,0.422-0.94,0.941-0.94h3.242c0.015,0,0.032,0.001,0.049,0.001h30.16
		c0.016,0,0.031-0.001,0.049-0.001h3.24C58.24,50.635,58.662,51.057,58.662,51.575 M54.48,48.95H24.223
		c-2.313-0.027-4.184-1.913-4.184-4.23c0-0.519,0.422-0.942,0.941-0.942h3.271c0.006,0,0.013,0.001,0.02,0.001h30.16
		c0.005,0,0.012-0.001,0.018-0.001h3.271c0.52,0,0.941,0.423,0.941,0.942C58.662,47.037,56.789,48.923,54.48,48.95"/>
	<path fill="#D02322" d="M39.351,33.738c7.402,0,13.425-6.022,13.425-13.426c0-7.403-6.022-13.426-13.425-13.426
		s-13.426,6.022-13.426,13.426C25.925,27.716,31.948,33.738,39.351,33.738 M39.351,8.571c6.475,0,11.742,5.267,11.742,11.741
		c0,6.474-5.268,11.742-11.742,11.742c-6.476,0-11.741-5.269-11.741-11.742C27.609,13.838,32.875,8.571,39.351,8.571"/>
</g>
<rect x="-594.693" y="-895.34" fill="none" width="1024" height="4142"/>
</svg>
