<?xml version="1.0" encoding="utf-8"?>
<!-- Generator: Adobe Illustrator 16.0.0, SVG Export Plug-In . SVG Version: 6.00 Build 0)  -->
<!DOCTYPE svg PUBLIC "-//W3C//DTD SVG 1.1//EN" "http://www.w3.org/Graphics/SVG/1.1/DTD/svg11.dtd">
<svg version="1.1" id="Layer_1" xmlns="http://www.w3.org/2000/svg" xmlns:xlink="http://www.w3.org/1999/xlink" x="0px" y="0px"
	 width="76px" height="57.83px" viewBox="0 0 76 57.83" enable-background="new 0 0 76 57.83" xml:space="preserve">
<g>
	<path fill="#D02322" d="M35.032,40.879h-0.009c-0.457,0-0.822,0.37-0.822,0.827c0,0.456,0.373,0.826,0.831,0.826
		c0.456,0,0.825-0.37,0.825-0.826C35.857,41.249,35.488,40.879,35.032,40.879"/>
	<path fill="none" stroke="#D02322" stroke-width="0.343" stroke-miterlimit="10" d="M35.032,40.879h-0.009
		c-0.457,0-0.822,0.37-0.822,0.827c0,0.456,0.373,0.826,0.831,0.826c0.456,0,0.825-0.37,0.825-0.826
		C35.857,41.249,35.488,40.879,35.032,40.879z"/>
	<path fill="#D02322" d="M68.063,48.314v-2.472c0-6.069-4.389-11.122-10.155-12.18c0.15-0.32,0.24-0.672,0.24-1.048
		c0-1.366-1.112-2.479-2.479-2.479c-1.367,0-2.478,1.113-2.478,2.479c0,0.375,0.089,0.728,0.239,1.048
		c-2.746,0.503-5.173,1.915-6.967,3.911h-4.848v-3.432c3.951-2.288,6.622-6.553,6.622-11.439v-9.914
		c0-3.365-2.527-6.145-5.784-6.553V2.872c0-0.456-0.368-0.826-0.824-0.826h-8.265c-6.378,0-11.567,5.188-11.567,11.567v9.09
		c0,4.875,2.662,9.132,6.598,11.424v3.447h-4.955c-4.103,0-7.438,3.337-7.438,7.438v6.608c0,0.457,0.371,0.826,0.827,0.826
		s0.825-0.37,0.825-0.826v-6.608c0-3.189,2.594-5.784,5.782-5.784v12.391c0,0.457,0.37,0.826,0.828,0.826
		c0.456,0,0.826-0.369,0.826-0.826V39.228h3.638l5.451,10.121v2.27c0,0.457,0.368,0.826,0.824,0.826
		c0.458,0,0.827-0.369,0.827-0.826v-2.27l5.451-10.121h3.924c-1.216,1.916-1.932,4.181-1.932,6.615v2.472h-0.003
		c-0.456,0-0.825,0.37-0.825,0.826c0,1.824,1.481,3.305,3.304,3.305h19.833c1.823,0,3.304-1.481,3.304-3.305
		C68.889,48.684,68.521,48.314,68.063,48.314 M23.452,13.613c0-5.467,4.448-9.915,9.914-9.915h7.438v3.306
		c0,0.457,0.369,0.827,0.827,0.827c2.732,0,4.956,2.224,4.956,4.958v2.961l-1.895-1.895c-0.017-0.016-0.038-0.021-0.054-0.035
		c-0.043-0.037-0.087-0.065-0.136-0.091c-0.047-0.026-0.092-0.051-0.141-0.066c-0.051-0.017-0.102-0.024-0.155-0.03
		c-0.051-0.007-0.103-0.012-0.154-0.008c-0.052,0.003-0.099,0.016-0.149,0.029c-0.056,0.015-0.108,0.03-0.159,0.056
		c-0.02,0.01-0.042,0.01-0.06,0.021c-0.04,0.022-4.007,2.361-8.665,2.361c-4.655,0-8.623-2.339-8.664-2.361
		c-0.019-0.012-0.039-0.012-0.06-0.021c-0.051-0.026-0.103-0.043-0.159-0.056c-0.051-0.014-0.097-0.026-0.147-0.029
		c-0.054-0.003-0.104,0.001-0.157,0.008c-0.052,0.006-0.103,0.013-0.153,0.03c-0.05,0.017-0.093,0.04-0.141,0.066
		c-0.049,0.026-0.093,0.053-0.135,0.091c-0.018,0.015-0.039,0.02-0.055,0.035l-1.895,1.895v-2.137H23.452z M35.006,47.396
		l-4.222-7.841l2.409,0.481c0.055,0.012,0.11,0.016,0.162,0.016c0.117,0,0.227-0.032,0.331-0.078
		c0.012-0.006,0.025-0.002,0.037-0.009l1.282-0.642l1.284,0.642c0.012,0.007,0.024,0.003,0.038,0.009
		c0.104,0.046,0.214,0.078,0.329,0.078c0.054,0,0.109-0.004,0.163-0.016l2.41-0.481L35.006,47.396z M39.965,37.724l-3.188,0.635
		l-1.398-0.699c-0.021-0.009-0.039-0.008-0.059-0.015c-0.051-0.021-0.104-0.033-0.159-0.043c-0.053-0.01-0.1-0.021-0.151-0.021
		c-0.053,0-0.102,0.012-0.153,0.021c-0.056,0.01-0.109,0.02-0.159,0.043c-0.019,0.007-0.039,0.006-0.059,0.015l-1.397,0.699
		l-3.189-0.635v-2.778c1.536,0.627,3.213,0.978,4.97,0.978c1.75,0,3.417-0.349,4.946-0.969v2.769H39.965z M35.02,34.271
		c-6.378,0-11.567-5.189-11.567-11.568v-4.616l2.624-2.625c1.334,0.692,4.841,2.283,8.943,2.283s7.61-1.591,8.941-2.283l2.626,2.625
		v4.616C46.587,29.082,41.398,34.271,35.02,34.271 M55.67,31.789c0.457,0,0.825,0.371,0.825,0.826c0,0.456-0.368,0.826-0.825,0.826
		c-0.456,0-0.826-0.37-0.826-0.826C54.844,32.16,55.214,31.789,55.67,31.789 M44.929,45.843c0-5.922,4.818-10.74,10.741-10.74
		s10.741,4.818,10.741,10.74v2.472H44.929V45.843z M65.585,50.792H45.752c-0.607,0-1.135-0.333-1.423-0.825h22.677
		C66.722,50.459,66.193,50.792,65.585,50.792"/>
	<path fill="none" stroke="#D02322" stroke-width="0.343" stroke-miterlimit="10" d="M68.063,48.314v-2.472
		c0-6.069-4.389-11.122-10.155-12.18c0.15-0.32,0.24-0.672,0.24-1.048c0-1.366-1.112-2.479-2.479-2.479
		c-1.367,0-2.478,1.113-2.478,2.479c0,0.375,0.089,0.728,0.239,1.048c-2.746,0.503-5.173,1.915-6.967,3.911h-4.848v-3.432
		c3.951-2.288,6.622-6.553,6.622-11.439v-9.914c0-3.365-2.527-6.145-5.784-6.553V2.872c0-0.456-0.368-0.826-0.824-0.826h-8.265
		c-6.378,0-11.567,5.188-11.567,11.567v9.09c0,4.875,2.662,9.132,6.598,11.424v3.447h-4.955c-4.103,0-7.438,3.337-7.438,7.438v6.608
		c0,0.457,0.371,0.826,0.827,0.826s0.825-0.37,0.825-0.826v-6.608c0-3.189,2.594-5.784,5.782-5.784v12.391
		c0,0.457,0.37,0.826,0.828,0.826c0.456,0,0.826-0.369,0.826-0.826V39.228h3.638l5.451,10.121v2.27c0,0.457,0.368,0.826,0.824,0.826
		c0.458,0,0.827-0.369,0.827-0.826v-2.27l5.451-10.121h3.924c-1.216,1.916-1.932,4.181-1.932,6.615v2.472h-0.003
		c-0.456,0-0.825,0.37-0.825,0.826c0,1.824,1.481,3.305,3.304,3.305h19.833c1.823,0,3.304-1.481,3.304-3.305
		C68.889,48.684,68.521,48.314,68.063,48.314z M23.452,13.613c0-5.467,4.448-9.915,9.914-9.915h7.438v3.306
		c0,0.457,0.369,0.827,0.827,0.827c2.732,0,4.956,2.224,4.956,4.958v2.961l-1.895-1.895c-0.017-0.016-0.038-0.021-0.054-0.035
		c-0.043-0.037-0.087-0.065-0.136-0.091c-0.047-0.026-0.092-0.051-0.141-0.066c-0.051-0.017-0.102-0.024-0.155-0.03
		c-0.051-0.007-0.103-0.012-0.154-0.008c-0.052,0.003-0.099,0.016-0.149,0.029c-0.056,0.015-0.108,0.03-0.159,0.056
		c-0.02,0.01-0.042,0.01-0.06,0.021c-0.04,0.022-4.007,2.361-8.665,2.361c-4.655,0-8.623-2.339-8.664-2.361
		c-0.019-0.012-0.039-0.012-0.06-0.021c-0.051-0.026-0.103-0.043-0.159-0.056c-0.051-0.014-0.097-0.026-0.147-0.029
		c-0.054-0.003-0.104,0.001-0.157,0.008c-0.052,0.006-0.103,0.013-0.153,0.03c-0.05,0.017-0.093,0.04-0.141,0.066
		c-0.049,0.026-0.093,0.053-0.135,0.091c-0.018,0.015-0.039,0.02-0.055,0.035l-1.895,1.895v-2.137H23.452z M35.006,47.396
		l-4.222-7.841l2.409,0.481c0.055,0.012,0.11,0.016,0.162,0.016c0.117,0,0.227-0.032,0.331-0.078
		c0.012-0.006,0.025-0.002,0.037-0.009l1.282-0.642l1.284,0.642c0.012,0.007,0.024,0.003,0.038,0.009
		c0.104,0.046,0.214,0.078,0.329,0.078c0.054,0,0.109-0.004,0.163-0.016l2.41-0.481L35.006,47.396z M39.965,37.724l-3.188,0.635
		l-1.398-0.699c-0.021-0.009-0.039-0.008-0.059-0.015c-0.051-0.021-0.104-0.033-0.159-0.043c-0.053-0.01-0.1-0.021-0.151-0.021
		c-0.053,0-0.102,0.012-0.153,0.021c-0.056,0.01-0.109,0.02-0.159,0.043c-0.019,0.007-0.039,0.006-0.059,0.015l-1.397,0.699
		l-3.189-0.635v-2.778c1.536,0.627,3.213,0.978,4.97,0.978c1.75,0,3.417-0.349,4.946-0.969v2.769H39.965z M35.02,34.271
		c-6.378,0-11.567-5.189-11.567-11.568v-4.616l2.624-2.625c1.334,0.692,4.841,2.283,8.943,2.283s7.61-1.591,8.941-2.283l2.626,2.625
		v4.616C46.587,29.082,41.398,34.271,35.02,34.271z M55.67,31.789c0.457,0,0.825,0.371,0.825,0.826c0,0.456-0.368,0.826-0.825,0.826
		c-0.456,0-0.826-0.37-0.826-0.826C54.844,32.16,55.214,31.789,55.67,31.789z M44.929,45.843c0-5.922,4.818-10.74,10.741-10.74
		s10.741,4.818,10.741,10.74v2.472H44.929V45.843z M65.585,50.792H45.752c-0.607,0-1.135-0.333-1.423-0.825h22.677
		C66.722,50.459,66.193,50.792,65.585,50.792z"/>
</g>
<rect x="-736.443" y="-899.143" fill="none" width="1024" height="4142"/>
</svg>
