<?xml version="1.0" encoding="utf-8"?>
<!-- Generator: Adobe Illustrator 16.0.0, SVG Export Plug-In . SVG Version: 6.00 Build 0)  -->
<!DOCTYPE svg PUBLIC "-//W3C//DTD SVG 1.1//EN" "http://www.w3.org/Graphics/SVG/1.1/DTD/svg11.dtd">
<svg version="1.1" id="Layer_1" xmlns="http://www.w3.org/2000/svg" xmlns:xlink="http://www.w3.org/1999/xlink" x="0px" y="0px"
	 width="76px" height="57.83px" viewBox="0 0 76 57.83" enable-background="new 0 0 76 57.83" xml:space="preserve">
<g>
	<path fill="#D02322" d="M56.488,7.307c-2.386,0-4.834,0.781-6.723,2.097c-1.73-3.869-5.621-6.458-9.958-6.458
		c-4.336,0-8.227,2.589-9.958,6.458c-1.889-1.316-4.336-2.097-6.722-2.097c-4.222,0-8.181,2.422-10.087,6.169
		c-0.274,0.537-0.06,1.193,0.476,1.465c0.537,0.274,1.194,0.06,1.467-0.477c1.538-3.023,4.734-4.976,8.144-4.976
		c2.411,0,4.885,0.965,6.456,2.516c0.274,0.272,0.673,0.378,1.046,0.279c0.375-0.1,0.667-0.391,0.77-0.764
		c1.041-3.764,4.499-6.392,8.408-6.392c3.91,0,7.368,2.628,8.408,6.392c0.104,0.373,0.397,0.664,0.77,0.764
		c0.374,0.099,0.772-0.007,1.047-0.279c1.572-1.551,4.044-2.516,6.456-2.516c4.904,0,9.048,3.994,9.048,8.723
		c0,4.726-4.144,8.721-9.048,8.721c-0.321,0-0.648-0.018-0.972-0.054c-0.308-0.035-0.615,0.065-0.846,0.271
		c-0.231,0.208-0.363,0.503-0.363,0.812v9.873h-5.778v-5.451c0-0.603-0.488-1.091-1.09-1.091s-1.09,0.489-1.09,1.091v5.451h-5.452
		v-5.451c0-0.603-0.487-1.091-1.09-1.091c-0.602,0-1.09,0.489-1.09,1.091v5.451h-5.451v-5.451c0-0.603-0.488-1.091-1.089-1.091
		c-0.603,0-1.091,0.489-1.091,1.091v5.451h-5.779V27.96c0-0.309-0.131-0.604-0.361-0.812c-0.232-0.206-0.54-0.306-0.847-0.271
		c-3.765,0.412-7.434-1.616-9.116-4.923c-0.272-0.536-0.93-0.751-1.467-0.477c-0.536,0.273-0.75,0.928-0.476,1.466
		c1.906,3.746,5.865,6.168,10.087,6.168v18.534c0,0.602,0.488,1.09,1.09,1.09h31.18c0.602,0,1.091-0.488,1.091-1.09V29.111
		c5.911,0,11.23-4.776,11.23-10.901C67.718,12.083,62.398,7.307,56.488,7.307 M25.307,40.013h29v6.542h-29V40.013z"/>
</g>
<rect x="-180.193" y="-900.561" fill="none" width="1024" height="4142"/>
</svg>
