<?xml version="1.0" encoding="utf-8"?>
<!-- Generator: Adobe Illustrator 16.0.0, SVG Export Plug-In . SVG Version: 6.00 Build 0)  -->
<!DOCTYPE svg PUBLIC "-//W3C//DTD SVG 1.1//EN" "http://www.w3.org/Graphics/SVG/1.1/DTD/svg11.dtd">
<svg version="1.1" id="Layer_1" xmlns="http://www.w3.org/2000/svg" xmlns:xlink="http://www.w3.org/1999/xlink" x="0px" y="0px"
	 width="76px" height="57.83px" viewBox="0 0 76 57.83" enable-background="new 0 0 76 57.83" xml:space="preserve">
<g>
	<path fill="#D02322" d="M19.778,13.035c1.288,0,2.331-1.043,2.331-2.33c0-1.288-1.043-2.332-2.331-2.332s-2.332,1.044-2.332,2.332
		C17.448,11.991,18.491,13.035,19.778,13.035 M19.778,9.928c0.43,0,0.777,0.348,0.777,0.777c0,0.429-0.347,0.777-0.777,0.777
		c-0.429,0-0.777-0.348-0.777-0.777C19.002,10.276,19.349,9.928,19.778,9.928"/>
	<path fill="#D02322" d="M25.995,13.035c1.288,0,2.331-1.043,2.331-2.33c0-1.288-1.043-2.332-2.331-2.332
		c-1.287,0-2.332,1.044-2.332,2.332C23.665,11.991,24.708,13.035,25.995,13.035 M25.995,9.928c0.43,0,0.778,0.348,0.778,0.777
		c0,0.429-0.348,0.777-0.778,0.777c-0.429,0-0.777-0.348-0.777-0.777C25.219,10.276,25.565,9.928,25.995,9.928"/>
	<g>
		<path fill="#D02322" d="M59.411,5.265H14.339c-0.43,0-0.778,0.348-0.778,0.778v45.071c0,0.429,0.348,0.778,0.778,0.778h45.072
			c0.429,0,0.777-0.349,0.777-0.778V6.043C60.188,5.613,59.84,5.265,59.411,5.265 M58.633,50.337H15.116V16.145h43.517V50.337z
			 M58.633,14.591H15.116V6.82h43.517V14.591z"/>
		<path fill="none" stroke="#D02322" stroke-width="0.433" stroke-miterlimit="10" d="M59.411,5.265H14.339
			c-0.43,0-0.778,0.348-0.778,0.778v45.071c0,0.429,0.348,0.778,0.778,0.778h45.072c0.429,0,0.777-0.349,0.777-0.778V6.043
			C60.188,5.613,59.84,5.265,59.411,5.265z M58.633,50.337H15.116V16.145h43.517V50.337z M58.633,14.591H15.116V6.82h43.517V14.591z
			"/>
		<path fill="#D02322" d="M30.658,13.036h12.433c0.43,0,0.778-0.349,0.778-0.777V9.152c0-0.431-0.348-0.779-0.778-0.779H30.658
			c-0.429,0-0.777,0.348-0.777,0.779v3.107C29.881,12.688,30.229,13.036,30.658,13.036 M31.435,9.928h10.879v1.554H31.435V9.928z"/>
		<path fill="#D02322" d="M47.754,13.035c1.288,0,2.332-1.043,2.332-2.33c0-1.288-1.044-2.332-2.332-2.332s-2.331,1.044-2.331,2.332
			C45.424,11.991,46.467,13.035,47.754,13.035 M47.754,9.928c0.429,0,0.777,0.348,0.777,0.777c0,0.429-0.348,0.777-0.777,0.777
			s-0.777-0.348-0.777-0.777C46.978,10.276,47.325,9.928,47.754,9.928"/>
		<path fill="#D02322" d="M53.971,13.035c1.288,0,2.332-1.043,2.332-2.33c0-1.288-1.044-2.332-2.332-2.332s-2.331,1.044-2.331,2.332
			C51.641,11.991,52.684,13.035,53.971,13.035 M53.971,9.928c0.43,0,0.777,0.348,0.777,0.777c0,0.429-0.347,0.777-0.777,0.777
			s-0.777-0.348-0.777-0.777C53.195,10.276,53.542,9.928,53.971,9.928"/>
		<path fill="#D02322" d="M53.194,23.916H20.555c-0.429,0-0.777,0.348-0.777,0.777v20.205c0,0.43,0.348,0.777,0.777,0.777h32.639
			c0.429,0,0.777-0.348,0.777-0.777V24.693C53.971,24.264,53.623,23.916,53.194,23.916 M52.416,44.121H21.333V25.47h31.083V44.121z"
			/>
		<path fill="none" stroke="#D02322" stroke-width="0.433" stroke-miterlimit="10" d="M53.194,23.916H20.555
			c-0.429,0-0.777,0.348-0.777,0.777v20.205c0,0.43,0.348,0.777,0.777,0.777h32.639c0.429,0,0.777-0.348,0.777-0.777V24.693
			C53.971,24.264,53.623,23.916,53.194,23.916z M52.416,44.121H21.333V25.47h31.083V44.121z"/>
		<path fill="#D02322" d="M23.663,21.395h26.422c0.43,0,0.777-0.347,0.777-0.777c0-0.429-0.347-0.777-0.777-0.777H23.663
			c-0.429,0-0.777,0.349-0.777,0.777C22.886,21.048,23.234,21.395,23.663,21.395"/>
		<path fill="none" stroke="#D02322" stroke-width="0.433" stroke-miterlimit="10" d="M23.663,21.395h26.422
			c0.43,0,0.777-0.347,0.777-0.777c0-0.429-0.347-0.777-0.777-0.777H23.663c-0.429,0-0.777,0.349-0.777,0.777
			C22.886,21.048,23.234,21.395,23.663,21.395z"/>
	</g>
</g>
<rect x="-316.193" y="-897.534" fill="none" width="1024" height="4142"/>
</svg>
