<?xml version="1.0" encoding="utf-8"?>
<!-- Generator: Adobe Illustrator 16.0.0, SVG Export Plug-In . SVG Version: 6.00 Build 0)  -->
<!DOCTYPE svg PUBLIC "-//W3C//DTD SVG 1.1//EN" "http://www.w3.org/Graphics/SVG/1.1/DTD/svg11.dtd">
<svg version="1.1" id="Layer_1" xmlns="http://www.w3.org/2000/svg" xmlns:xlink="http://www.w3.org/1999/xlink" x="0px" y="0px"
	 width="76px" height="57.83px" viewBox="0 0 76 57.83" enable-background="new 0 0 76 57.83" xml:space="preserve">
<g>
	<path fill="#D02322" d="M67.725,26.583l-1.743-6.97c0.477-0.101,0.833-0.523,0.833-1.029v-1.124c0-2.439-1.985-4.424-4.423-4.424
		h-7.936v-2.317c0-1.2-0.977-2.177-2.177-2.177H11.828c-1.2,0-2.177,0.977-2.177,2.177v19.102c0,0.582,0.472,1.053,1.053,1.053
		c0.583,0,1.054-0.471,1.054-1.053V10.718c0-0.039,0.031-0.07,0.07-0.07h40.451c0.038,0,0.069,0.031,0.069,0.07v19.102
		c0,0.582,0.473,1.054,1.053,1.054c0.583,0,1.055-0.472,1.055-1.054v-1.194h12.426c0.001,0,0.002,0,0.003,0h0.002
		c1.53,0.001,2.828,1.005,3.275,2.388h-3.277c-0.581,0-1.054,0.471-1.054,1.053v2.248c0,1.819,1.481,3.3,3.303,3.3h1.192v4.635
		h-2.753c-0.906-2.613-3.389-4.494-6.306-4.494c-2.916,0-5.399,1.881-6.305,4.494h-0.506v-7.935c0-0.583-0.472-1.054-1.055-1.054
		c-0.58,0-1.053,0.471-1.053,1.054v7.935H30.493c-0.905-2.613-3.389-4.495-6.305-4.495c-2.917,0-5.4,1.882-6.304,4.495h-6.056
		c-0.039,0-0.07-0.032-0.07-0.071v-2.317h4.565c0.582,0,1.054-0.472,1.054-1.054c0-0.581-0.471-1.053-1.054-1.053H6.211
		c-0.583,0-1.054,0.472-1.054,1.053c0,0.582,0.471,1.054,1.054,1.054h3.44v2.317c0,1.201,0.977,2.177,2.177,2.177h5.691
		c-0.002,0.024-0.003,0.047-0.003,0.07c0,3.679,2.993,6.672,6.672,6.672c3.68,0,6.672-2.993,6.672-6.672
		c0-0.023-0.002-0.046-0.002-0.07h23.74c0,0.024-0.002,0.047-0.002,0.07c0,3.679,2.992,6.672,6.671,6.672
		c3.68,0,6.672-2.993,6.672-6.672c0-0.023-0.002-0.046-0.002-0.07h3.443c0.581,0,1.053-0.472,1.053-1.053V32.066
		C72.434,29.292,70.386,26.986,67.725,26.583 M54.456,15.143h7.936c1.277,0,2.317,1.039,2.317,2.317v0.07H54.456V15.143z
		 M54.456,26.519v-6.883h9.36l1.719,6.883H54.456z M24.188,48.99c-2.517,0-4.565-2.047-4.565-4.564c0-2.517,2.048-4.564,4.565-4.564
		s4.565,2.048,4.565,4.564C28.753,46.943,26.705,48.99,24.188,48.99 M61.267,48.99c-2.517,0-4.564-2.047-4.564-4.564
		c0-2.517,2.047-4.564,4.564-4.564c2.518,0,4.565,2.048,4.565,4.564C65.832,46.943,63.785,48.99,61.267,48.99 M70.327,35.507h-1.193
		c-0.661,0-1.194-0.535-1.194-1.193v-1.195h2.388V35.507z"/>
	<path fill="#D02322" d="M24.188,42.249c-1.2,0-2.177,0.977-2.177,2.177c0,1.2,0.977,2.177,2.177,2.177
		c1.201,0,2.177-0.977,2.177-2.177C26.365,43.226,25.39,42.249,24.188,42.249"/>
	<path fill="#D02322" d="M61.268,42.249c-1.2,0-2.177,0.977-2.177,2.177c0,1.2,0.977,2.177,2.177,2.177s2.177-0.977,2.177-2.177
		C63.444,43.226,62.468,42.249,61.268,42.249"/>
	<path fill="#D02322" d="M48.908,37.755h-15.73c-0.583,0-1.054,0.472-1.054,1.053c0,0.583,0.471,1.054,1.054,1.054h15.73
		c0.583,0,1.054-0.471,1.054-1.054C49.962,38.227,49.491,37.755,48.908,37.755"/>
	<path fill="#D02322" d="M21.942,33.26H8.458c-0.582,0-1.054,0.471-1.054,1.054c0,0.581,0.472,1.053,1.054,1.053h13.484
		c0.581,0,1.053-0.472,1.053-1.053C22.995,33.731,22.523,33.26,21.942,33.26"/>
</g>
<rect x="-445.818" y="-897.534" fill="none" width="1024" height="4142"/>
</svg>
