<svg id="Capa_1" data-name="Capa 1" xmlns="http://www.w3.org/2000/svg" viewBox="0 0 45.25 53.37"><defs><style>.cls-1{fill:#cf2322;}</style></defs><title>Galindez_Web_4_tipos_de_eventos_elegido</title><path class="cls-1" d="M20.72,8.59,11.19,6.73a1,1,0,0,0-1,.47,48.47,48.47,0,0,0-5,13.62,24.05,24.05,0,0,0-.45,5.08,18,18,0,0,0,.46,3.82c.08.35.18.71.29,1.05.82,2.6,2.21,4.37,4,5.11L7.39,47,3,46.11A2.45,2.45,0,0,0,.25,47.58a3.11,3.11,0,0,0-.15.56,4.29,4.29,0,0,0-.09.54,2.43,2.43,0,0,0,2,2.54l10.82,2.11a2.47,2.47,0,0,0,2.47-1,2.35,2.35,0,0,0,.32-.67,4.23,4.23,0,0,0,.16-.92,2.42,2.42,0,0,0-2-2.49l-4.44-.87,2.06-11.1a7.41,7.41,0,0,0,5.32-2.9l.39-.47a18.87,18.87,0,0,0,3-5.57,24.46,24.46,0,0,0,.92-3.4,48.43,48.43,0,0,0,.51-14.49,1,1,0,0,0-.79-.83m-7,41.76a.52.52,0,0,1,.06.38,1.58,1.58,0,0,1-.08.37.45.45,0,0,1-.5.3L2.34,49.27A.46.46,0,0,1,2,49a.69.69,0,0,1,0-.49.65.65,0,0,1,.17-.4A.44.44,0,0,1,2.58,48L13.4,50.16a.45.45,0,0,1,.28.19M11.52,8.8l8.11,1.58a47.78,47.78,0,0,1-.57,13.14c-.09.46-.2.92-.31,1.37H6.69a22.44,22.44,0,0,1,.41-3.7A47.72,47.72,0,0,1,11.52,8.8M17.3,28.87a14.67,14.67,0,0,1-1.83,2.89,6.78,6.78,0,0,1-3.26,2.39,3.16,3.16,0,0,1-1.66,0,4.16,4.16,0,0,1-2.35-2,11.1,11.1,0,0,1-1.33-4c-.06-.41-.1-.82-.14-1.23h11.4a19.66,19.66,0,0,1-.84,2"/><path class="cls-1" d="M45.21,48.37a3.73,3.73,0,0,0-.33-1.05,2.34,2.34,0,0,0-.61-.73,2.43,2.43,0,0,0-2-.48L37.86,47l-2.17-11.1C39.5,34.29,41.36,28,40,20.82A48.53,48.53,0,0,0,35,7.2a1,1,0,0,0-1-.48L24.41,8.59a1,1,0,0,0-.79.83,48.42,48.42,0,0,0,.51,14.49c1.4,7.16,5.49,12.31,9.62,12.34l2.17,11.1-4.44.87a2.46,2.46,0,0,0-1.9,1.84,3.11,3.11,0,0,0,.13,1.65,2.43,2.43,0,0,0,2.76,1.62l10.82-2.11a2.45,2.45,0,0,0,1.91-2.84m-19.71-38L33.62,8.8A47.81,47.81,0,0,1,38,21.2c0,.26.1.51.14.77H25.8a48.64,48.64,0,0,1-.3-11.58m17.7,38.7a.45.45,0,0,1-.28.19L32.1,51.39a.45.45,0,0,1-.39-.11.67.67,0,0,1-.17-.4.75.75,0,0,1,0-.46.45.45,0,0,1,.32-.26L42.68,48a.46.46,0,0,1,.5.3.89.89,0,0,1,0,.74m-9.6-14.82a4.46,4.46,0,0,1-2.33-.94,9.27,9.27,0,0,1-1.78-1.78,13.42,13.42,0,0,1-.87-1.26,18.23,18.23,0,0,1-1.38-2.75,21.94,21.94,0,0,1-1.09-3.6H38.39A18,18,0,0,1,38,29.34a11.79,11.79,0,0,1-.45,1.48c-.69,1.81-1.73,3-3,3.34a3.07,3.07,0,0,1-1,.11"/><path class="cls-1" d="M23.41,1a1,1,0,0,0-2,0V4.2a1,1,0,1,0,2,0Z"/><path class="cls-1" d="M18.41,3.74a1,1,0,0,0,.85.48,1,1,0,0,0,.84-1.5l-1.22-2a1,1,0,0,0-1.69,1Z"/><path class="cls-1" d="M25.27,4.07a1,1,0,0,0,.51.15,1,1,0,0,0,.84-.48l1.22-2a1,1,0,0,0-1.69-1l-1.22,2a1,1,0,0,0,.33,1.36"/></svg>