<svg id="Capa_1" data-name="Capa 1" xmlns="http://www.w3.org/2000/svg" viewBox="0 0 45.35 53.29"><defs><style>.cls-1{fill:#cf2322;}</style></defs><title>Galindez_Web_4_tipos_de_eventos_elegido</title><path class="cls-1" d="M4.69,29.36a.87.87,0,1,0,.87.87.87.87,0,0,0-.87-.87"/><path class="cls-1" d="M40.45,32.38l-8.23,2.83a3.48,3.48,0,0,0-3.44-4.11H23.14a.87.87,0,0,1-.43-.11l-4.61-2.59a6.12,6.12,0,0,0-3-.79H8.91a2.62,2.62,0,0,0-2.47-1.75H1.2a.87.87,0,0,0-.87.87V42.45a.87.87,0,0,0,.87.87H6.44a2.62,2.62,0,0,0,2.44-1.68,7.94,7.94,0,0,1,2.85.85l4.57,2.74a11.11,11.11,0,0,0,10.33.59l16.29-7.17a3.37,3.37,0,0,0-2.47-6.26M7.31,40.71a.87.87,0,0,1-.87.87H2.07v-14H6.44a.87.87,0,0,1,.87.87ZM42.26,37h0L25.91,44.23a9.37,9.37,0,0,1-8.71-.5L12.63,41A9.63,9.63,0,0,0,9.06,39.9V29.36h6a4.34,4.34,0,0,1,2.14.56l4.61,2.59a2.62,2.62,0,0,0,1.29.34h5.65a1.75,1.75,0,1,1,0,3.49H19.91a.87.87,0,1,0,0,1.74h8.87a3.47,3.47,0,0,0,1.64-.41L41,34a1.65,1.65,0,0,1,2,.64A1.64,1.64,0,0,1,42.26,37"/><path class="cls-1" d="M25.75,27.65a.87.87,0,0,0,1.14,0C34,21.48,38.43,18.35,38.43,13.5c0-3.84-2.72-7-6.54-7a6.46,6.46,0,0,0-5.67,3.62A6.35,6.35,0,0,0,14.33,11.3a.87.87,0,1,0,1.68.49,4.74,4.74,0,0,1,4.55-3.57c2.49,0,4.24,2.21,4.82,4.27a.87.87,0,0,0,1.68,0s1.23-4.27,4.83-4.27c2.73,0,4.79,2.27,4.79,5.28,0,3.88-3.8,6.68-10.35,12.34-4-3.43-7.17-5.85-9-8.21A.87.87,0,0,0,16,18.69c2,2.66,5.47,5.22,9.79,9"/><path class="cls-1" d="M15.08,14.16A.87.87,0,1,0,16,15a.88.88,0,0,0-.87-.87"/></svg>