<svg id="Capa_1" data-name="Capa 1" xmlns="http://www.w3.org/2000/svg" viewBox="0 0 45.35 53.29"><defs><style>.cls-1{fill:#cf2322;}</style></defs><title>Galindez_Web_4_tipos_de_eventos_elegido</title><path class="cls-1" d="M28.05,27.06,24.3,25.61l-2.15-2.16a.75.75,0,0,0-.51-.21V21.48a8,8,0,0,0,2-4h0a2.23,2.23,0,0,0,.56,0A2.25,2.25,0,0,0,26,15.19v-.56A2.29,2.29,0,0,0,25.29,13c.69-3.72.13-6.75-1.62-8.78s-4.42-2.89-7.88-2.7a10.31,10.31,0,0,0-5.94,2.2C9,3.83,6.4,4.47,6.4,8a19.18,19.18,0,0,0,.55,4.53,2.26,2.26,0,0,0-1.27,2.06v.56A2.18,2.18,0,0,0,8,17.47H8a8,8,0,0,0,2,4v1.76a.75.75,0,0,0-.51.21L7.36,25.61,3.14,27.24A5.08,5.08,0,0,0-.11,32.18l.6,15a.74.74,0,0,0,.74.71h0A.74.74,0,0,0,2,47.1l-.6-15A3.56,3.56,0,0,1,1.5,31L3.9,33.36A3.58,3.58,0,0,1,5,35.91V47.13a.74.74,0,0,0,1.47,0V35.91a5,5,0,0,0-1.49-3.59l-2.7-2.7a3.61,3.61,0,0,1,1.43-1l3.94-1.52,3,4.51a2.18,2.18,0,0,0,1.6,1h.22a2.18,2.18,0,0,0,1.13-.32L12.92,47.1a.73.73,0,0,0,.7.77h0a.73.73,0,0,0,.73-.71L15,33.4h1.67l.6,13.76a.74.74,0,0,0,.74.71h0a.74.74,0,0,0,.71-.77l-.65-14.84a2.19,2.19,0,0,0,1.13.32h.22a2.18,2.18,0,0,0,1.6-1l3-4.51,3.47,1.34a.74.74,0,0,0,.53-1.38M9.44,17.19A1.47,1.47,0,0,0,7.91,16H7.72a.79.79,0,0,1-.57-.79v-.56a.77.77,0,0,1,.58-.77.71.71,0,0,1,.7.27,1,1,0,0,0,1.43.22,5.65,5.65,0,0,0,1.51-1.59A.74.74,0,1,0,10.12,12a4.15,4.15,0,0,1-.82.95,2.16,2.16,0,0,0-.87-.47A17.76,17.76,0,0,1,7.88,8,2.75,2.75,0,0,1,9,5.53a2.52,2.52,0,0,1,1.18-.37A.74.74,0,0,0,10.67,5a8.76,8.76,0,0,1,5.2-2c3-.16,5.31.6,6.69,2.19s1.86,4.1,1.35,7.2a3.31,3.31,0,0,0-.71,0l-.74-1.77a.73.73,0,0,0-.87-.43c-.07,0-7.24,1.85-10.25-1.91a.74.74,0,0,0-1.15.92c3.07,3.82,9.16,3,11.15,2.56l.58,1.38a1.23,1.23,0,0,0,1.43.73,1.73,1.73,0,0,1,.59,0,.77.77,0,0,1,.58.76v.56a.79.79,0,0,1-.57.79h-.19a1.47,1.47,0,0,0-1.53,1.2,6.5,6.5,0,0,1-12.78,0m3.5,13.7a.71.71,0,0,1-1.1-.11l-3-4.54L10.07,25l4.68,4.1Zm2.12,1,0-1.12.72-.72.73.72,0,1.12Zm.77-3.87L11.5,24.27V22.71a8,8,0,0,0,8.66,0v1.56Zm4,2.72a.71.71,0,0,1-.52.31.7.7,0,0,1-.57-.21l-1.82-1.81L21.59,25l1.26,1.26Z"/><path class="cls-1" d="M45.47,36.1a3.1,3.1,0,0,0-3.1-3.1H37.59V31.37a2.31,2.31,0,0,0-2.31-2.31H30.55a2.31,2.31,0,0,0-2.31,2.31V33H23.46a3.1,3.1,0,0,0-3.1,3.1v2.19a3.9,3.9,0,0,0,.79,2.3v8.2a3,3,0,0,0,3,3H41.66a3,3,0,0,0,3-3v-8.2a3.89,3.89,0,0,0,.79-2.3ZM29.72,31.37h0a.84.84,0,0,1,.84-.84h4.73a.84.84,0,0,1,.84.84V33h-6.4ZM44,38.29c0,1.26-1.2,2.52-3.25,3.46v-.13a.74.74,0,0,0-.74-.74H36.86a.74.74,0,0,0-.74.74V44a2.31,2.31,0,0,0,4.63,0v-.63A11.49,11.49,0,0,0,43.21,42v6.76a1.55,1.55,0,0,1-1.55,1.54H24.17a1.55,1.55,0,0,1-1.55-1.54V42a11.43,11.43,0,0,0,2.46,1.32V44a2.31,2.31,0,0,0,4.57.52,24.72,24.72,0,0,0,3.26.21h.81a.74.74,0,1,0,0-1.47h-.76a23.3,23.3,0,0,1-3.2-.22V41.61a.74.74,0,0,0-.74-.74H25.83a.74.74,0,0,0-.74.74v.13c-2.05-.94-3.25-2.19-3.25-3.46V36.1a1.63,1.63,0,0,1,1.63-1.63H42.37A1.63,1.63,0,0,1,44,36.1Zm-4.73,4.06V44a.84.84,0,1,1-1.68,0V42.35ZM26.56,44V42.35h1.68V44a.84.84,0,1,1-1.68,0"/></svg>